<?xml version="1.0" encoding="UTF-8" standalone="no"?>
<!DOCTYPE svg PUBLIC "-//W3C//DTD SVG 1.1//EN"
 "http://www.w3.org/Graphics/SVG/1.1/DTD/svg11.dtd">
<!-- Generated by graphviz version 2.42.4 (0)
 -->
<!-- Title: ServiceComponentsRuntime Pages: 1 -->
<svg width="1951pt" height="495pt"
 viewBox="0.00 0.00 1950.77 495.00" xmlns="http://www.w3.org/2000/svg" xmlns:xlink="http://www.w3.org/1999/xlink">
<g id="graph0" class="graph" transform="scale(1 1) rotate(0) translate(4 491)">
<title>ServiceComponentsRuntime</title>
<polygon fill="white" stroke="transparent" points="-4,4 -4,-491 1946.77,-491 1946.77,4 -4,4"/>
<text text-anchor="middle" x="971.38" y="-475" font-family="Arial" font-size="10.00">Runtime OODA component graph</text>
<!-- daemon -->
<g id="node1" class="node">
<title>daemon</title>
<path fill="#fffdf5" stroke="#8a6f3d" d="M1526.77,-468C1526.77,-468 1384.77,-468 1384.77,-468 1378.77,-468 1372.77,-462 1372.77,-456 1372.77,-456 1372.77,-444 1372.77,-444 1372.77,-438 1378.77,-432 1384.77,-432 1384.77,-432 1526.77,-432 1526.77,-432 1532.77,-432 1538.77,-438 1538.77,-444 1538.77,-444 1538.77,-456 1538.77,-456 1538.77,-462 1532.77,-468 1526.77,-468"/>
<text text-anchor="middle" x="1455.77" y="-447.8" font-family="Arial" font-size="9.00">operator_commands_ooda::daemon</text>
</g>
<!-- brains -->
<g id="node2" class="node">
<title>brains</title>
<path fill="#fffdf5" stroke="#8a6f3d" d="M946.77,-396C946.77,-396 890.77,-396 890.77,-396 884.77,-396 878.77,-390 878.77,-384 878.77,-384 878.77,-372 878.77,-372 878.77,-366 884.77,-360 890.77,-360 890.77,-360 946.77,-360 946.77,-360 952.77,-360 958.77,-366 958.77,-372 958.77,-372 958.77,-384 958.77,-384 958.77,-390 952.77,-396 946.77,-396"/>
<text text-anchor="middle" x="918.77" y="-375.8" font-family="Arial" font-size="9.00">daemon::brains</text>
</g>
<!-- daemon&#45;&gt;brains -->
<g id="edge1" class="edge">
<title>daemon&#45;&gt;brains</title>
<path fill="none" stroke="#6e6250" d="M1372.48,-440.46C1283.49,-431 1138.36,-414.6 1013.77,-396 999.23,-393.83 983.51,-391.15 969.11,-388.57"/>
<polygon fill="#6e6250" stroke="#6e6250" points="969.36,-385.06 958.9,-386.71 968.11,-391.94 969.36,-385.06"/>
</g>
<!-- persistence -->
<g id="node3" class="node">
<title>persistence</title>
<path fill="#fffdf5" stroke="#8a6f3d" d="M1223.27,-396C1223.27,-396 1068.27,-396 1068.27,-396 1062.27,-396 1056.27,-390 1056.27,-384 1056.27,-384 1056.27,-372 1056.27,-372 1056.27,-366 1062.27,-360 1068.27,-360 1068.27,-360 1223.27,-360 1223.27,-360 1229.27,-360 1235.27,-366 1235.27,-372 1235.27,-372 1235.27,-384 1235.27,-384 1235.27,-390 1229.27,-396 1223.27,-396"/>
<text text-anchor="middle" x="1145.77" y="-375.8" font-family="Arial" font-size="9.00">operator_commands_ooda::persistence</text>
</g>
<!-- daemon&#45;&gt;persistence -->
<g id="edge2" class="edge">
<title>daemon&#45;&gt;persistence</title>
<path fill="none" stroke="#6e6250" d="M1380.33,-431.97C1335.24,-421.78 1277.82,-408.82 1231.08,-398.26"/>
<polygon fill="#6e6250" stroke="#6e6250" points="1231.8,-394.84 1221.28,-396.05 1230.26,-401.67 1231.8,-394.84"/>
</g>
<!-- dashboard -->
<g id="node4" class="node">
<title>dashboard</title>
<path fill="#fffdf5" stroke="#8a6f3d" d="M1392.27,-396C1392.27,-396 1265.27,-396 1265.27,-396 1259.27,-396 1253.27,-390 1253.27,-384 1253.27,-384 1253.27,-372 1253.27,-372 1253.27,-366 1259.27,-360 1265.27,-360 1265.27,-360 1392.27,-360 1392.27,-360 1398.27,-360 1404.27,-366 1404.27,-372 1404.27,-372 1404.27,-384 1404.27,-384 1404.27,-390 1398.27,-396 1392.27,-396"/>
<text text-anchor="middle" x="1328.77" y="-375.8" font-family="Arial" font-size="9.00">operator_commands_dashboard</text>
</g>
<!-- daemon&#45;&gt;dashboard -->
<g id="edge3" class="edge">
<title>daemon&#45;&gt;dashboard</title>
<path fill="none" stroke="#6e6250" d="M1424.7,-431.88C1407.94,-422.64 1387.06,-411.13 1369.07,-401.21"/>
<polygon fill="#6e6250" stroke="#6e6250" points="1370.4,-397.95 1359.95,-396.19 1367.02,-404.08 1370.4,-397.95"/>
</g>
<!-- run_cycle -->
<g id="node5" class="node">
<title>run_cycle</title>
<path fill="#fffdf5" stroke="#8a6f3d" d="M398.27,-396C398.27,-396 291.27,-396 291.27,-396 285.27,-396 279.27,-390 279.27,-384 279.27,-384 279.27,-372 279.27,-372 279.27,-366 285.27,-360 291.27,-360 291.27,-360 398.27,-360 398.27,-360 404.27,-360 410.27,-366 410.27,-372 410.27,-372 410.27,-384 410.27,-384 410.27,-390 404.27,-396 398.27,-396"/>
<text text-anchor="middle" x="344.77" y="-375.8" font-family="Arial" font-size="9.00">ooda_loop::run_ooda_cycle</text>
</g>
<!-- daemon&#45;&gt;run_cycle -->
<g id="edge4" class="edge">
<title>daemon&#45;&gt;run_cycle</title>
<path fill="none" stroke="#6e6250" d="M1372.72,-443.77C1164.26,-430.63 621.29,-396.42 420.69,-383.78"/>
<polygon fill="#6e6250" stroke="#6e6250" points="420.74,-380.28 410.54,-383.14 420.3,-387.27 420.74,-380.28"/>
</g>
<!-- memory_ipc -->
<g id="node24" class="node">
<title>memory_ipc</title>
<path fill="#fffdf5" stroke="#8a6f3d" d="M1477.27,-396C1477.27,-396 1434.27,-396 1434.27,-396 1428.27,-396 1422.27,-390 1422.27,-384 1422.27,-384 1422.27,-372 1422.27,-372 1422.27,-366 1428.27,-360 1434.27,-360 1434.27,-360 1477.27,-360 1477.27,-360 1483.27,-360 1489.27,-366 1489.27,-372 1489.27,-372 1489.27,-384 1489.27,-384 1489.27,-390 1483.27,-396 1477.27,-396"/>
<text text-anchor="middle" x="1455.77" y="-375.8" font-family="Arial" font-size="9.00">memory_ipc</text>
</g>
<!-- daemon&#45;&gt;memory_ipc -->
<g id="edge6" class="edge">
<title>daemon&#45;&gt;memory_ipc</title>
<path fill="none" stroke="#6e6250" d="M1455.77,-431.7C1455.77,-423.98 1455.77,-414.71 1455.77,-406.11"/>
<polygon fill="#6e6250" stroke="#6e6250" points="1459.27,-406.1 1455.77,-396.1 1452.27,-406.1 1459.27,-406.1"/>
</g>
<!-- goal_board_store -->
<g id="node27" class="node">
<title>goal_board_store</title>
<path fill="#fffdf5" stroke="#8a6f3d" d="M463.27,-36C463.27,-36 398.27,-36 398.27,-36 392.27,-36 386.27,-30 386.27,-24 386.27,-24 386.27,-12 386.27,-12 386.27,-6 392.27,0 398.27,0 398.27,0 463.27,0 463.27,0 469.27,0 475.27,-6 475.27,-12 475.27,-12 475.27,-24 475.27,-24 475.27,-30 469.27,-36 463.27,-36"/>
<text text-anchor="middle" x="430.77" y="-15.8" font-family="Arial" font-size="9.00">goal_board_store</text>
</g>
<!-- daemon&#45;&gt;goal_board_store -->
<g id="edge5" class="edge">
<title>daemon&#45;&gt;goal_board_store</title>
<path fill="none" stroke="#6e6250" d="M1372.49,-449.08C1267.15,-447.39 1093.88,-438.06 1047.77,-396 1017.81,-368.68 1027.77,-347.54 1027.77,-307 1027.77,-307 1027.77,-307 1027.77,-161 1027.77,-50.2 633.62,-25.71 485.85,-20.42"/>
<polygon fill="#6e6250" stroke="#6e6250" points="485.75,-16.91 475.64,-20.07 485.51,-23.91 485.75,-16.91"/>
</g>
<!-- threads -->
<g id="node29" class="node">
<title>threads</title>
<path fill="#fffdf5" stroke="#8a6f3d" d="M1609.77,-396C1609.77,-396 1519.77,-396 1519.77,-396 1513.77,-396 1507.77,-390 1507.77,-384 1507.77,-384 1507.77,-372 1507.77,-372 1507.77,-366 1513.77,-360 1519.77,-360 1519.77,-360 1609.77,-360 1609.77,-360 1615.77,-360 1621.77,-366 1621.77,-372 1621.77,-372 1621.77,-384 1621.77,-384 1621.77,-390 1615.77,-396 1609.77,-396"/>
<text text-anchor="middle" x="1564.77" y="-375.8" font-family="Arial" font-size="9.00">cognitive_threads::Mind</text>
</g>
<!-- daemon&#45;&gt;threads -->
<g id="edge7" class="edge">
<title>daemon&#45;&gt;threads</title>
<path fill="none" stroke="#6e6250" d="M1482.43,-431.88C1496.55,-422.81 1514.08,-411.55 1529.33,-401.76"/>
<polygon fill="#6e6250" stroke="#6e6250" points="1531.48,-404.54 1538,-396.19 1527.7,-398.65 1531.48,-404.54"/>
</g>
<!-- overseer_tick -->
<g id="node30" class="node">
<title>overseer_tick</title>
<path fill="#fffdf5" stroke="#8a6f3d" d="M1695.77,-396C1695.77,-396 1651.77,-396 1651.77,-396 1645.77,-396 1639.77,-390 1639.77,-384 1639.77,-384 1639.77,-372 1639.77,-372 1639.77,-366 1645.77,-360 1651.77,-360 1651.77,-360 1695.77,-360 1695.77,-360 1701.77,-360 1707.77,-366 1707.77,-372 1707.77,-372 1707.77,-384 1707.77,-384 1707.77,-390 1701.77,-396 1695.77,-396"/>
<text text-anchor="middle" x="1673.77" y="-375.8" font-family="Arial" font-size="9.00">overseer tick</text>
</g>
<!-- daemon&#45;&gt;overseer_tick -->
<g id="edge8" class="edge">
<title>daemon&#45;&gt;overseer_tick</title>
<path fill="none" stroke="#6e6250" d="M1516.5,-431.94C1548.04,-422.77 1587.34,-410.87 1630.12,-396.1"/>
<polygon fill="#6e6250" stroke="#6e6250" points="1631.3,-399.4 1639.6,-392.8 1629,-392.79 1631.3,-399.4"/>
</g>
<!-- journal_tick -->
<g id="node31" class="node">
<title>journal_tick</title>
<path fill="#fffdf5" stroke="#8a6f3d" d="M1775.27,-396C1775.27,-396 1738.27,-396 1738.27,-396 1732.27,-396 1726.27,-390 1726.27,-384 1726.27,-384 1726.27,-372 1726.27,-372 1726.27,-366 1732.27,-360 1738.27,-360 1738.27,-360 1775.27,-360 1775.27,-360 1781.27,-360 1787.27,-366 1787.27,-372 1787.27,-372 1787.27,-384 1787.27,-384 1787.27,-390 1781.27,-396 1775.27,-396"/>
<text text-anchor="middle" x="1756.77" y="-375.8" font-family="Arial" font-size="9.00">journal tick</text>
</g>
<!-- daemon&#45;&gt;journal_tick -->
<g id="edge9" class="edge">
<title>daemon&#45;&gt;journal_tick</title>
<path fill="none" stroke="#6e6250" d="M1538.83,-436.53C1588.12,-428.11 1651.8,-415.45 1716.09,-395.88"/>
<polygon fill="#6e6250" stroke="#6e6250" points="1717.47,-399.11 1725.99,-392.81 1715.4,-392.42 1717.47,-399.11"/>
</g>
<!-- self_metrics -->
<g id="node32" class="node">
<title>self_metrics</title>
<path fill="#fffdf5" stroke="#8a6f3d" d="M1858.27,-396C1858.27,-396 1817.27,-396 1817.27,-396 1811.27,-396 1805.27,-390 1805.27,-384 1805.27,-384 1805.27,-372 1805.27,-372 1805.27,-366 1811.27,-360 1817.27,-360 1817.27,-360 1858.27,-360 1858.27,-360 1864.27,-360 1870.27,-366 1870.27,-372 1870.27,-372 1870.27,-384 1870.27,-384 1870.27,-390 1864.27,-396 1858.27,-396"/>
<text text-anchor="middle" x="1837.77" y="-375.8" font-family="Arial" font-size="9.00">self_metrics</text>
</g>
<!-- daemon&#45;&gt;self_metrics -->
<g id="edge10" class="edge">
<title>daemon&#45;&gt;self_metrics</title>
<path fill="none" stroke="#6e6250" d="M1538.94,-441.68C1606.34,-434.47 1703.61,-421.15 1795.19,-396.13"/>
<polygon fill="#6e6250" stroke="#6e6250" points="1796.2,-399.48 1804.89,-393.43 1794.32,-392.74 1796.2,-399.48"/>
</g>
<!-- telemetry -->
<g id="node33" class="node">
<title>telemetry</title>
<path fill="#fffdf5" stroke="#8a6f3d" d="M1930.77,-396C1930.77,-396 1900.77,-396 1900.77,-396 1894.77,-396 1888.77,-390 1888.77,-384 1888.77,-384 1888.77,-372 1888.77,-372 1888.77,-366 1894.77,-360 1900.77,-360 1900.77,-360 1930.77,-360 1930.77,-360 1936.77,-360 1942.77,-366 1942.77,-372 1942.77,-372 1942.77,-384 1942.77,-384 1942.77,-390 1936.77,-396 1930.77,-396"/>
<text text-anchor="middle" x="1915.77" y="-375.8" font-family="Arial" font-size="9.00">telemetry</text>
</g>
<!-- daemon&#45;&gt;telemetry -->
<g id="edge11" class="edge">
<title>daemon&#45;&gt;telemetry</title>
<path fill="none" stroke="#6e6250" d="M1539.01,-446.35C1623.37,-441.93 1757.25,-430.12 1878.76,-395.76"/>
<polygon fill="#6e6250" stroke="#6e6250" points="1879.96,-399.06 1888.6,-392.92 1878.02,-392.33 1879.96,-399.06"/>
</g>
<!-- brain_traits -->
<g id="node20" class="node">
<title>brain_traits</title>
<path fill="#fffdf5" stroke="#8a6f3d" d="M805.27,-108C805.27,-108 742.27,-108 742.27,-108 736.27,-108 730.27,-102 730.27,-96 730.27,-96 730.27,-84 730.27,-84 730.27,-78 736.27,-72 742.27,-72 742.27,-72 805.27,-72 805.27,-72 811.27,-72 817.27,-78 817.27,-84 817.27,-84 817.27,-96 817.27,-96 817.27,-102 811.27,-108 805.27,-108"/>
<text text-anchor="middle" x="773.77" y="-87.8" font-family="Arial" font-size="9.00">OODA brain traits</text>
</g>
<!-- brains&#45;&gt;brain_traits -->
<g id="edge12" class="edge">
<title>brains&#45;&gt;brain_traits</title>
<path fill="none" stroke="#6e6250" d="M878.4,-360C862.36,-351.38 845.08,-339.43 833.77,-324 809.57,-291 787.27,-172.02 778.13,-118.01"/>
<polygon fill="#6e6250" stroke="#6e6250" points="781.58,-117.41 776.48,-108.12 774.67,-118.56 781.58,-117.41"/>
</g>
<!-- recipe_brain -->
<g id="node21" class="node">
<title>recipe_brain</title>
<path fill="#fffdf5" stroke="#8a6f3d" d="M987.77,-324C987.77,-324 943.77,-324 943.77,-324 937.77,-324 931.77,-318 931.77,-312 931.77,-312 931.77,-300 931.77,-300 931.77,-294 937.77,-288 943.77,-288 943.77,-288 987.77,-288 987.77,-288 993.77,-288 999.77,-294 999.77,-300 999.77,-300 999.77,-312 999.77,-312 999.77,-318 993.77,-324 987.77,-324"/>
<text text-anchor="middle" x="965.77" y="-303.8" font-family="Arial" font-size="9.00">RecipeBrain</text>
</g>
<!-- brains&#45;&gt;recipe_brain -->
<g id="edge13" class="edge">
<title>brains&#45;&gt;recipe_brain</title>
<path fill="none" stroke="#6e6250" d="M930.39,-359.7C935.91,-351.47 942.61,-341.48 948.7,-332.42"/>
<polygon fill="#6e6250" stroke="#6e6250" points="951.61,-334.36 954.28,-324.1 945.8,-330.46 951.61,-334.36"/>
</g>
<!-- prompt_store -->
<g id="node22" class="node">
<title>prompt_store</title>
<path fill="#fffdf5" stroke="#8a6f3d" d="M901.27,-324C901.27,-324 854.27,-324 854.27,-324 848.27,-324 842.27,-318 842.27,-312 842.27,-312 842.27,-300 842.27,-300 842.27,-294 848.27,-288 854.27,-288 854.27,-288 901.27,-288 901.27,-288 907.27,-288 913.27,-294 913.27,-300 913.27,-300 913.27,-312 913.27,-312 913.27,-318 907.27,-324 901.27,-324"/>
<text text-anchor="middle" x="877.77" y="-303.8" font-family="Arial" font-size="9.00">prompt_store</text>
</g>
<!-- brains&#45;&gt;prompt_store -->
<g id="edge14" class="edge">
<title>brains&#45;&gt;prompt_store</title>
<path fill="none" stroke="#6e6250" d="M908.63,-359.7C903.92,-351.64 898.21,-341.89 892.99,-332.98"/>
<polygon fill="#6e6250" stroke="#6e6250" points="895.86,-330.96 887.79,-324.1 889.82,-334.5 895.86,-330.96"/>
</g>
<!-- observe -->
<g id="node6" class="node">
<title>observe</title>
<path fill="#fffdf5" stroke="#8a6f3d" d="M154.77,-180C154.77,-180 124.77,-180 124.77,-180 118.77,-180 112.77,-174 112.77,-168 112.77,-168 112.77,-156 112.77,-156 112.77,-150 118.77,-144 124.77,-144 124.77,-144 154.77,-144 154.77,-144 160.77,-144 166.77,-150 166.77,-156 166.77,-156 166.77,-168 166.77,-168 166.77,-174 160.77,-180 154.77,-180"/>
<text text-anchor="middle" x="139.77" y="-159.8" font-family="Arial" font-size="9.00">observe</text>
</g>
<!-- run_cycle&#45;&gt;observe -->
<g id="edge15" class="edge">
<title>run_cycle&#45;&gt;observe</title>
<path fill="none" stroke="#6e6250" d="M279,-369.79C246.59,-362.97 209.31,-349.73 184.77,-324 149.73,-287.27 141.57,-225.57 139.91,-190.17"/>
<polygon fill="#6e6250" stroke="#6e6250" points="143.4,-189.97 139.58,-180.09 136.41,-190.2 143.4,-189.97"/>
</g>
<!-- orient -->
<g id="node7" class="node">
<title>orient</title>
<path fill="#fffdf5" stroke="#8a6f3d" d="M471.77,-180C471.77,-180 441.77,-180 441.77,-180 435.77,-180 429.77,-174 429.77,-168 429.77,-168 429.77,-156 429.77,-156 429.77,-150 435.77,-144 441.77,-144 441.77,-144 471.77,-144 471.77,-144 477.77,-144 483.77,-150 483.77,-156 483.77,-156 483.77,-168 483.77,-168 483.77,-174 477.77,-180 471.77,-180"/>
<text text-anchor="middle" x="456.77" y="-159.8" font-family="Arial" font-size="9.00">orient</text>
</g>
<!-- run_cycle&#45;&gt;orient -->
<g id="edge16" class="edge">
<title>run_cycle&#45;&gt;orient</title>
<path fill="none" stroke="#6e6250" d="M377.1,-359.91C391.18,-350.96 406.73,-338.76 416.77,-324 444.68,-282.95 453.14,-224.2 455.69,-190.19"/>
<polygon fill="#6e6250" stroke="#6e6250" points="459.19,-190.27 456.32,-180.07 452.2,-189.83 459.19,-190.27"/>
</g>
<!-- decide -->
<g id="node8" class="node">
<title>decide</title>
<path fill="#fffdf5" stroke="#8a6f3d" d="M649.77,-252C649.77,-252 619.77,-252 619.77,-252 613.77,-252 607.77,-246 607.77,-240 607.77,-240 607.77,-228 607.77,-228 607.77,-222 613.77,-216 619.77,-216 619.77,-216 649.77,-216 649.77,-216 655.77,-216 661.77,-222 661.77,-228 661.77,-228 661.77,-240 661.77,-240 661.77,-246 655.77,-252 649.77,-252"/>
<text text-anchor="middle" x="634.77" y="-231.8" font-family="Arial" font-size="9.00">decide</text>
</g>
<!-- run_cycle&#45;&gt;decide -->
<g id="edge17" class="edge">
<title>run_cycle&#45;&gt;decide</title>
<path fill="none" stroke="#6e6250" d="M387.73,-359.95C412.05,-350 442.89,-336.91 469.77,-324 515.09,-302.23 565.79,-274.33 598.88,-255.62"/>
<polygon fill="#6e6250" stroke="#6e6250" points="600.76,-258.58 607.73,-250.6 597.3,-252.49 600.76,-258.58"/>
</g>
<!-- act -->
<g id="node9" class="node">
<title>act</title>
<path fill="#fffdf5" stroke="#8a6f3d" d="M395.77,-324C395.77,-324 365.77,-324 365.77,-324 359.77,-324 353.77,-318 353.77,-312 353.77,-312 353.77,-300 353.77,-300 353.77,-294 359.77,-288 365.77,-288 365.77,-288 395.77,-288 395.77,-288 401.77,-288 407.77,-294 407.77,-300 407.77,-300 407.77,-312 407.77,-312 407.77,-318 401.77,-324 395.77,-324"/>
<text text-anchor="middle" x="380.77" y="-303.8" font-family="Arial" font-size="9.00">act</text>
</g>
<!-- run_cycle&#45;&gt;act -->
<g id="edge18" class="edge">
<title>run_cycle&#45;&gt;act</title>
<path fill="none" stroke="#6e6250" d="M353.67,-359.7C357.76,-351.73 362.72,-342.1 367.26,-333.26"/>
<polygon fill="#6e6250" stroke="#6e6250" points="370.51,-334.6 371.97,-324.1 364.29,-331.4 370.51,-334.6"/>
</g>
<!-- curate -->
<g id="node10" class="node">
<title>curate</title>
<path fill="#fffdf5" stroke="#8a6f3d" d="M82.77,-180C82.77,-180 52.77,-180 52.77,-180 46.77,-180 40.77,-174 40.77,-168 40.77,-168 40.77,-156 40.77,-156 40.77,-150 46.77,-144 52.77,-144 52.77,-144 82.77,-144 82.77,-144 88.77,-144 94.77,-150 94.77,-156 94.77,-156 94.77,-168 94.77,-168 94.77,-174 88.77,-180 82.77,-180"/>
<text text-anchor="middle" x="67.77" y="-159.8" font-family="Arial" font-size="9.00">curate</text>
</g>
<!-- run_cycle&#45;&gt;curate -->
<g id="edge19" class="edge">
<title>run_cycle&#45;&gt;curate</title>
<path fill="none" stroke="#6e6250" d="M278.97,-371.17C239.99,-364.83 191.58,-351.6 156.77,-324 112.69,-289.06 87.14,-226 75.48,-190.04"/>
<polygon fill="#6e6250" stroke="#6e6250" points="78.75,-188.75 72.43,-180.24 72.06,-190.83 78.75,-188.75"/>
</g>
<!-- coverage -->
<g id="node12" class="node">
<title>coverage</title>
<path fill="#fffdf5" stroke="#8a6f3d" d="M323.27,-324C323.27,-324 292.27,-324 292.27,-324 286.27,-324 280.27,-318 280.27,-312 280.27,-312 280.27,-300 280.27,-300 280.27,-294 286.27,-288 292.27,-288 292.27,-288 323.27,-288 323.27,-288 329.27,-288 335.27,-294 335.27,-300 335.27,-300 335.27,-312 335.27,-312 335.27,-318 329.27,-324 323.27,-324"/>
<text text-anchor="middle" x="307.77" y="-303.8" font-family="Arial" font-size="9.00">coverage</text>
</g>
<!-- run_cycle&#45;&gt;coverage -->
<g id="edge20" class="edge">
<title>run_cycle&#45;&gt;coverage</title>
<path fill="none" stroke="#6e6250" d="M335.62,-359.7C331.37,-351.64 326.21,-341.89 321.5,-332.98"/>
<polygon fill="#6e6250" stroke="#6e6250" points="324.58,-331.31 316.81,-324.1 318.39,-334.58 324.58,-331.31"/>
</g>
<!-- no_progress -->
<g id="node13" class="node">
<title>no_progress</title>
<path fill="#fffdf5" stroke="#8a6f3d" d="M249.77,-324C249.77,-324 205.77,-324 205.77,-324 199.77,-324 193.77,-318 193.77,-312 193.77,-312 193.77,-300 193.77,-300 193.77,-294 199.77,-288 205.77,-288 205.77,-288 249.77,-288 249.77,-288 255.77,-288 261.77,-294 261.77,-300 261.77,-300 261.77,-312 261.77,-312 261.77,-318 255.77,-324 249.77,-324"/>
<text text-anchor="middle" x="227.77" y="-303.8" font-family="Arial" font-size="9.00">no_progress</text>
</g>
<!-- run_cycle&#45;&gt;no_progress -->
<g id="edge21" class="edge">
<title>run_cycle&#45;&gt;no_progress</title>
<path fill="none" stroke="#6e6250" d="M316.15,-359.88C300.85,-350.72 281.82,-339.34 265.35,-329.48"/>
<polygon fill="#6e6250" stroke="#6e6250" points="266.88,-326.32 256.5,-324.19 263.28,-332.33 266.88,-326.32"/>
</g>
<!-- memory_ops -->
<g id="node23" class="node">
<title>memory_ops</title>
<path fill="#fffdf5" stroke="#8a6f3d" d="M328.27,-108C328.27,-108 247.27,-108 247.27,-108 241.27,-108 235.27,-102 235.27,-96 235.27,-96 235.27,-84 235.27,-84 235.27,-78 241.27,-72 247.27,-72 247.27,-72 328.27,-72 328.27,-72 334.27,-72 340.27,-78 340.27,-84 340.27,-84 340.27,-96 340.27,-96 340.27,-102 334.27,-108 328.27,-108"/>
<text text-anchor="middle" x="287.77" y="-87.8" font-family="Arial" font-size="9.00">CognitiveMemoryOps</text>
</g>
<!-- observe&#45;&gt;memory_ops -->
<g id="edge22" class="edge">
<title>observe&#45;&gt;memory_ops</title>
<path fill="none" stroke="#6e6250" d="M166.91,-148.16C188,-138.19 217.72,-124.13 242.4,-112.46"/>
<polygon fill="#6e6250" stroke="#6e6250" points="244.05,-115.55 251.59,-108.11 241.05,-109.22 244.05,-115.55"/>
</g>
<!-- memory_consolidation -->
<g id="node25" class="node">
<title>memory_consolidation</title>
<path fill="#fffdf5" stroke="#8a6f3d" d="M113.77,-108C113.77,-108 27.77,-108 27.77,-108 21.77,-108 15.77,-102 15.77,-96 15.77,-96 15.77,-84 15.77,-84 15.77,-78 21.77,-72 27.77,-72 27.77,-72 113.77,-72 113.77,-72 119.77,-72 125.77,-78 125.77,-84 125.77,-84 125.77,-96 125.77,-96 125.77,-102 119.77,-108 113.77,-108"/>
<text text-anchor="middle" x="70.77" y="-87.8" font-family="Arial" font-size="9.00">memory_consolidation</text>
</g>
<!-- observe&#45;&gt;memory_consolidation -->
<g id="edge23" class="edge">
<title>observe&#45;&gt;memory_consolidation</title>
<path fill="none" stroke="#6e6250" d="M122.71,-143.7C114.27,-135.14 103.94,-124.66 94.72,-115.3"/>
<polygon fill="#6e6250" stroke="#6e6250" points="97.14,-112.77 87.63,-108.1 92.16,-117.68 97.14,-112.77"/>
</g>
<!-- phase_weights -->
<g id="node11" class="node">
<title>phase_weights</title>
<path fill="#fffdf5" stroke="#8a6f3d" d="M700.27,-108C700.27,-108 645.27,-108 645.27,-108 639.27,-108 633.27,-102 633.27,-96 633.27,-96 633.27,-84 633.27,-84 633.27,-78 639.27,-72 645.27,-72 645.27,-72 700.27,-72 700.27,-72 706.27,-72 712.27,-78 712.27,-84 712.27,-84 712.27,-96 712.27,-96 712.27,-102 706.27,-108 700.27,-108"/>
<text text-anchor="middle" x="672.77" y="-87.8" font-family="Arial" font-size="9.00">phase_weights</text>
</g>
<!-- orient&#45;&gt;phase_weights -->
<g id="edge26" class="edge">
<title>orient&#45;&gt;phase_weights</title>
<path fill="none" stroke="#6e6250" d="M484.08,-147.51C486.98,-146.25 489.92,-145.06 492.77,-144 546.51,-124.1 564.3,-125.67 623.41,-107.97"/>
<polygon fill="#6e6250" stroke="#6e6250" points="624.72,-111.23 633.26,-104.96 622.67,-104.53 624.72,-111.23"/>
</g>
<!-- orient&#45;&gt;brain_traits -->
<g id="edge24" class="edge">
<title>orient&#45;&gt;brain_traits</title>
<path fill="none" stroke="#6e6250" d="M483.96,-147.17C486.89,-145.98 489.86,-144.89 492.77,-144 588.16,-114.64 619.63,-130.98 720.26,-108.13"/>
<polygon fill="#6e6250" stroke="#6e6250" points="721.28,-111.49 730.22,-105.8 719.69,-104.67 721.28,-111.49"/>
</g>
<!-- goal_curation -->
<g id="node26" class="node">
<title>goal_curation</title>
<path fill="#fffdf5" stroke="#8a6f3d" d="M205.27,-108C205.27,-108 156.27,-108 156.27,-108 150.27,-108 144.27,-102 144.27,-96 144.27,-96 144.27,-84 144.27,-84 144.27,-78 150.27,-72 156.27,-72 156.27,-72 205.27,-72 205.27,-72 211.27,-72 217.27,-78 217.27,-84 217.27,-84 217.27,-96 217.27,-96 217.27,-102 211.27,-108 205.27,-108"/>
<text text-anchor="middle" x="180.77" y="-87.8" font-family="Arial" font-size="9.00">goal_curation</text>
</g>
<!-- orient&#45;&gt;goal_curation -->
<g id="edge25" class="edge">
<title>orient&#45;&gt;goal_curation</title>
<path fill="none" stroke="#6e6250" d="M429.55,-147.26C426.62,-146.05 423.66,-144.93 420.77,-144 340.33,-118.03 313.27,-130.31 227.4,-107.87"/>
<polygon fill="#6e6250" stroke="#6e6250" points="228.06,-104.43 217.49,-105.2 226.24,-111.18 228.06,-104.43"/>
</g>
<!-- decide&#45;&gt;brain_traits -->
<g id="edge27" class="edge">
<title>decide&#45;&gt;brain_traits</title>
<path fill="none" stroke="#6e6250" d="M661.8,-228.79C689.96,-222.92 733.18,-209.48 756.77,-180 770.63,-162.67 774.38,-137.41 774.95,-118.22"/>
<polygon fill="#6e6250" stroke="#6e6250" points="778.45,-118.01 774.98,-108 771.45,-118 778.45,-118.01"/>
</g>
<!-- dispatch -->
<g id="node14" class="node">
<title>dispatch</title>
<path fill="#fffdf5" stroke="#8a6f3d" d="M414.77,-252C414.77,-252 310.77,-252 310.77,-252 304.77,-252 298.77,-246 298.77,-240 298.77,-240 298.77,-228 298.77,-228 298.77,-222 304.77,-216 310.77,-216 310.77,-216 414.77,-216 414.77,-216 420.77,-216 426.77,-222 426.77,-228 426.77,-228 426.77,-240 426.77,-240 426.77,-246 420.77,-252 414.77,-252"/>
<text text-anchor="middle" x="362.77" y="-231.8" font-family="Arial" font-size="9.00">dispatch_actions_bounded</text>
</g>
<!-- act&#45;&gt;dispatch -->
<g id="edge28" class="edge">
<title>act&#45;&gt;dispatch</title>
<path fill="none" stroke="#6e6250" d="M376.32,-287.7C374.31,-279.9 371.9,-270.51 369.67,-261.83"/>
<polygon fill="#6e6250" stroke="#6e6250" points="373.05,-260.92 367.17,-252.1 366.27,-262.66 373.05,-260.92"/>
</g>
<!-- curate&#45;&gt;memory_consolidation -->
<g id="edge31" class="edge">
<title>curate&#45;&gt;memory_consolidation</title>
<path fill="none" stroke="#6e6250" d="M68.51,-143.7C68.84,-135.98 69.24,-126.71 69.61,-118.11"/>
<polygon fill="#6e6250" stroke="#6e6250" points="73.1,-118.25 70.03,-108.1 66.11,-117.95 73.1,-118.25"/>
</g>
<!-- curate&#45;&gt;goal_curation -->
<g id="edge29" class="edge">
<title>curate&#45;&gt;goal_curation</title>
<path fill="none" stroke="#6e6250" d="M94.83,-144.23C109.71,-135.02 128.36,-123.47 144.48,-113.48"/>
<polygon fill="#6e6250" stroke="#6e6250" points="146.48,-116.36 153.14,-108.12 142.79,-110.41 146.48,-116.36"/>
</g>
<!-- curate&#45;&gt;goal_board_store -->
<g id="edge30" class="edge">
<title>curate&#45;&gt;goal_board_store</title>
<path fill="none" stroke="#6e6250" d="M41.92,-143.7C17.19,-125.08 -13.56,-95.03 6.77,-72 30.85,-44.73 267,-28.13 376.06,-21.86"/>
<polygon fill="#6e6250" stroke="#6e6250" points="376.42,-25.35 386.21,-21.29 376.03,-18.36 376.42,-25.35"/>
</g>
<!-- no_progress&#45;&gt;dispatch -->
<g id="edge33" class="edge">
<title>no_progress&#45;&gt;dispatch</title>
<path fill="none" stroke="#6e6250" d="M260.79,-287.88C278.85,-278.51 301.41,-266.81 320.72,-256.8"/>
<polygon fill="#6e6250" stroke="#6e6250" points="322.35,-259.9 329.62,-252.19 319.13,-253.69 322.35,-259.9"/>
</g>
<!-- no_progress&#45;&gt;goal_curation -->
<g id="edge32" class="edge">
<title>no_progress&#45;&gt;goal_curation</title>
<path fill="none" stroke="#6e6250" d="M224,-287.85C215.85,-250.75 196.54,-162.81 186.72,-118.1"/>
<polygon fill="#6e6250" stroke="#6e6250" points="190.12,-117.25 184.55,-108.23 183.28,-118.75 190.12,-117.25"/>
</g>
<!-- concurrent -->
<g id="node15" class="node">
<title>concurrent</title>
<path fill="#fffdf5" stroke="#8a6f3d" d="M609.77,-180C609.77,-180 513.77,-180 513.77,-180 507.77,-180 501.77,-174 501.77,-168 501.77,-168 501.77,-156 501.77,-156 501.77,-150 507.77,-144 513.77,-144 513.77,-144 609.77,-144 609.77,-144 615.77,-144 621.77,-150 621.77,-156 621.77,-156 621.77,-168 621.77,-168 621.77,-174 615.77,-180 609.77,-180"/>
<text text-anchor="middle" x="561.77" y="-159.8" font-family="Arial" font-size="9.00">ooda_actions::concurrent</text>
</g>
<!-- dispatch&#45;&gt;concurrent -->
<g id="edge34" class="edge">
<title>dispatch&#45;&gt;concurrent</title>
<path fill="none" stroke="#6e6250" d="M411.19,-215.97C439,-206.19 474.1,-193.84 503.42,-183.52"/>
<polygon fill="#6e6250" stroke="#6e6250" points="504.85,-186.73 513.12,-180.11 502.53,-180.13 504.85,-186.73"/>
</g>
<!-- spawn -->
<g id="node16" class="node">
<title>spawn</title>
<path fill="#fffdf5" stroke="#8a6f3d" d="M735.27,-180C735.27,-180 652.27,-180 652.27,-180 646.27,-180 640.27,-174 640.27,-168 640.27,-168 640.27,-156 640.27,-156 640.27,-150 646.27,-144 652.27,-144 652.27,-144 735.27,-144 735.27,-144 741.27,-144 747.27,-150 747.27,-156 747.27,-156 747.27,-168 747.27,-168 747.27,-174 741.27,-180 735.27,-180"/>
<text text-anchor="middle" x="693.77" y="-159.8" font-family="Arial" font-size="9.00">advance_goal::spawn</text>
</g>
<!-- dispatch&#45;&gt;spawn -->
<g id="edge35" class="edge">
<title>dispatch&#45;&gt;spawn</title>
<path fill="none" stroke="#6e6250" d="M426.93,-221.59C479.05,-212.02 554.65,-197.49 630.06,-180.08"/>
<polygon fill="#6e6250" stroke="#6e6250" points="631.27,-183.39 640.21,-177.72 629.68,-176.58 631.27,-183.39"/>
</g>
<!-- goal_session -->
<g id="node17" class="node">
<title>goal_session</title>
<path fill="#fffdf5" stroke="#8a6f3d" d="M282.27,-180C282.27,-180 235.27,-180 235.27,-180 229.27,-180 223.27,-174 223.27,-168 223.27,-168 223.27,-156 223.27,-156 223.27,-150 229.27,-144 235.27,-144 235.27,-144 282.27,-144 282.27,-144 288.27,-144 294.27,-150 294.27,-156 294.27,-156 294.27,-168 294.27,-168 294.27,-174 288.27,-180 282.27,-180"/>
<text text-anchor="middle" x="258.77" y="-159.8" font-family="Arial" font-size="9.00">goal_session</text>
</g>
<!-- dispatch&#45;&gt;goal_session -->
<g id="edge36" class="edge">
<title>dispatch&#45;&gt;goal_session</title>
<path fill="none" stroke="#6e6250" d="M337.33,-215.88C323.98,-206.89 307.44,-195.76 292.99,-186.03"/>
<polygon fill="#6e6250" stroke="#6e6250" points="294.56,-182.87 284.31,-180.19 290.65,-188.68 294.56,-182.87"/>
</g>
<!-- typed_session -->
<g id="node18" class="node">
<title>typed_session</title>
<path fill="#fffdf5" stroke="#8a6f3d" d="M399.27,-180C399.27,-180 324.27,-180 324.27,-180 318.27,-180 312.27,-174 312.27,-168 312.27,-168 312.27,-156 312.27,-156 312.27,-150 318.27,-144 324.27,-144 324.27,-144 399.27,-144 399.27,-144 405.27,-144 411.27,-150 411.27,-156 411.27,-156 411.27,-168 411.27,-168 411.27,-174 405.27,-180 399.27,-180"/>
<text text-anchor="middle" x="361.77" y="-159.8" font-family="Arial" font-size="9.00">typed_goal_session</text>
</g>
<!-- dispatch&#45;&gt;typed_session -->
<g id="edge37" class="edge">
<title>dispatch&#45;&gt;typed_session</title>
<path fill="none" stroke="#6e6250" d="M362.52,-215.7C362.41,-207.98 362.28,-198.71 362.16,-190.11"/>
<polygon fill="#6e6250" stroke="#6e6250" points="365.65,-190.05 362.01,-180.1 358.66,-190.15 365.65,-190.05"/>
</g>
<!-- concurrent&#45;&gt;brain_traits -->
<g id="edge39" class="edge">
<title>concurrent&#45;&gt;brain_traits</title>
<path fill="none" stroke="#6e6250" d="M613.36,-143.97C645.79,-133.26 687.55,-119.47 720.33,-108.65"/>
<polygon fill="#6e6250" stroke="#6e6250" points="721.79,-111.85 730.19,-105.39 719.6,-105.2 721.79,-111.85"/>
</g>
<!-- concurrent&#45;&gt;memory_ops -->
<g id="edge38" class="edge">
<title>concurrent&#45;&gt;memory_ops</title>
<path fill="none" stroke="#6e6250" d="M501.59,-146.12C453.74,-134.26 389.69,-118.31 350.42,-108.13"/>
<polygon fill="#6e6250" stroke="#6e6250" points="351.07,-104.69 340.51,-105.55 349.3,-111.46 351.07,-104.69"/>
</g>
<!-- spawn&#45;&gt;brain_traits -->
<g id="edge40" class="edge">
<title>spawn&#45;&gt;brain_traits</title>
<path fill="none" stroke="#6e6250" d="M713.54,-143.7C723.52,-134.97 735.78,-124.24 746.62,-114.75"/>
<polygon fill="#6e6250" stroke="#6e6250" points="749,-117.32 754.22,-108.1 744.39,-112.06 749,-117.32"/>
</g>
<!-- engineer_worktree -->
<g id="node28" class="node">
<title>engineer_worktree</title>
<path fill="#fffdf5" stroke="#8a6f3d" d="M602.77,-108C602.77,-108 532.77,-108 532.77,-108 526.77,-108 520.77,-102 520.77,-96 520.77,-96 520.77,-84 520.77,-84 520.77,-78 526.77,-72 532.77,-72 532.77,-72 602.77,-72 602.77,-72 608.77,-72 614.77,-78 614.77,-84 614.77,-84 614.77,-96 614.77,-96 614.77,-102 608.77,-108 602.77,-108"/>
<text text-anchor="middle" x="567.77" y="-87.8" font-family="Arial" font-size="9.00">engineer_worktree</text>
</g>
<!-- spawn&#45;&gt;engineer_worktree -->
<g id="edge41" class="edge">
<title>spawn&#45;&gt;engineer_worktree</title>
<path fill="none" stroke="#6e6250" d="M662.94,-143.88C646.32,-134.64 625.6,-123.13 607.75,-113.21"/>
<polygon fill="#6e6250" stroke="#6e6250" points="609.15,-109.99 598.71,-108.19 605.75,-116.11 609.15,-109.99"/>
</g>
<!-- goal_session&#45;&gt;memory_ops -->
<g id="edge42" class="edge">
<title>goal_session&#45;&gt;memory_ops</title>
<path fill="none" stroke="#6e6250" d="M265.94,-143.7C269.2,-135.81 273.14,-126.3 276.77,-117.55"/>
<polygon fill="#6e6250" stroke="#6e6250" points="280.09,-118.68 280.68,-108.1 273.62,-116 280.09,-118.68"/>
</g>
<!-- goal_session&#45;&gt;goal_curation -->
<g id="edge43" class="edge">
<title>goal_session&#45;&gt;goal_curation</title>
<path fill="none" stroke="#6e6250" d="M239.49,-143.7C229.85,-135.05 218.04,-124.45 207.54,-115.03"/>
<polygon fill="#6e6250" stroke="#6e6250" points="209.61,-112.18 199.83,-108.1 204.93,-117.39 209.61,-112.18"/>
</g>
<!-- typed_ledger -->
<g id="node19" class="node">
<title>typed_ledger</title>
<path fill="#fffdf5" stroke="#8a6f3d" d="M490.77,-108C490.77,-108 370.77,-108 370.77,-108 364.77,-108 358.77,-102 358.77,-96 358.77,-96 358.77,-84 358.77,-84 358.77,-78 364.77,-72 370.77,-72 370.77,-72 490.77,-72 490.77,-72 496.77,-72 502.77,-78 502.77,-84 502.77,-84 502.77,-96 502.77,-96 502.77,-102 496.77,-108 490.77,-108"/>
<text text-anchor="middle" x="430.77" y="-87.8" font-family="Arial" font-size="9.00">typed_ooda::CapabilityHandler</text>
</g>
<!-- typed_session&#45;&gt;typed_ledger -->
<g id="edge44" class="edge">
<title>typed_session&#45;&gt;typed_ledger</title>
<path fill="none" stroke="#6e6250" d="M378.82,-143.7C387.26,-135.14 397.59,-124.66 406.81,-115.3"/>
<polygon fill="#6e6250" stroke="#6e6250" points="409.38,-117.68 413.91,-108.1 404.4,-112.77 409.38,-117.68"/>
</g>
<!-- typed_session&#45;&gt;engineer_worktree -->
<g id="edge45" class="edge">
<title>typed_session&#45;&gt;engineer_worktree</title>
<path fill="none" stroke="#6e6250" d="M411.37,-144.14C441.34,-133.96 479.65,-120.94 510.86,-110.34"/>
<polygon fill="#6e6250" stroke="#6e6250" points="512.37,-113.52 520.72,-106.99 510.12,-106.89 512.37,-113.52"/>
</g>
<!-- typed_ledger&#45;&gt;goal_board_store -->
<g id="edge46" class="edge">
<title>typed_ledger&#45;&gt;goal_board_store</title>
<path fill="none" stroke="#6e6250" d="M430.77,-71.7C430.77,-63.98 430.77,-54.71 430.77,-46.11"/>
<polygon fill="#6e6250" stroke="#6e6250" points="434.27,-46.1 430.77,-36.1 427.27,-46.1 434.27,-46.1"/>
</g>
</g>
</svg>
