<?xml version="1.0" encoding="UTF-8" standalone="no"?>
<!DOCTYPE svg PUBLIC "-//W3C//DTD SVG 1.1//EN"
 "http://www.w3.org/Graphics/SVG/1.1/DTD/svg11.dtd">
<!-- Generated by graphviz version 2.42.4 (0)
 -->
<!-- Title: simard_runtime_topology Pages: 1 -->
<svg width="2663pt" height="1652pt"
 viewBox="0.00 0.00 2663.08 1652.00" xmlns="http://www.w3.org/2000/svg" xmlns:xlink="http://www.w3.org/1999/xlink">
<g id="graph0" class="graph" transform="scale(1 1) rotate(0) translate(4 1648)">
<title>simard_runtime_topology</title>
<polygon fill="white" stroke="transparent" points="-4,4 -4,-1648 2659.08,-1648 2659.08,4 -4,4"/>
<text text-anchor="middle" x="1327.54" y="-1630.4" font-family="Times,serif" font-size="12.00">Simard runtime topology (source&#45;derived)</text>
<g id="clust1" class="cluster">
<title>cluster_systemd</title>
<polygon fill="none" stroke="#94a3b8" points="8,-620 8,-695 549,-695 549,-620 8,-620"/>
<text text-anchor="middle" x="278.5" y="-681.4" font-family="Times,serif" font-size="12.00">systemd user unit</text>
</g>
<g id="clust2" class="cluster">
<title>cluster_daemon</title>
<polygon fill="none" stroke="#60a5fa" points="597,-539 597,-894 2263.08,-894 2263.08,-539 597,-539"/>
<text text-anchor="middle" x="1430.04" y="-880.4" font-family="Times,serif" font-size="12.00">daemon process</text>
</g>
<g id="clust3" class="cluster">
<title>cluster_spawned</title>
<polygon fill="none" stroke="#f59e0b" points="2040.08,-8 2040.08,-531 2631.58,-531 2631.58,-8 2040.08,-8"/>
<text text-anchor="middle" x="2335.83" y="-517.4" font-family="Times,serif" font-size="12.00">spawned CLI tools / child processes</text>
</g>
<g id="clust4" class="cluster">
<title>cluster_network</title>
<polygon fill="none" stroke="#22c55e" points="1404,-902 1404,-1157 1905.08,-1157 1905.08,-902 1404,-902"/>
<text text-anchor="middle" x="1654.54" y="-1143.4" font-family="Times,serif" font-size="12.00">network services / ports</text>
</g>
<g id="clust5" class="cluster">
<title>cluster_storage</title>
<polygon fill="none" stroke="#a78bfa" points="1537.04,-1430 1537.04,-1615 2647.08,-1615 2647.08,-1430 1537.04,-1430"/>
<text text-anchor="middle" x="2092.06" y="-1601.4" font-family="Times,serif" font-size="12.00">storage / IPC</text>
</g>
<!-- systemd_unit -->
<g id="node1" class="node">
<title>systemd_unit</title>
<polygon fill="#e0f2fe" stroke="#475569" points="240,-666 16,-666 16,-662 12,-662 12,-658 16,-658 16,-636 12,-636 12,-632 16,-632 16,-628 240,-628 240,-666"/>
<polyline fill="none" stroke="#475569" points="16,-662 20,-662 20,-658 16,-658 "/>
<polyline fill="none" stroke="#475569" points="16,-636 20,-636 20,-632 16,-632 "/>
<text text-anchor="middle" x="128" y="-650.8" font-family="Helvetica,sans-Serif" font-size="14.00">simard&#45;ooda.service</text>
<text text-anchor="middle" x="128" y="-635.8" font-family="Helvetica,sans-Serif" font-size="14.00">Type=simple; Restart=always</text>
</g>
<!-- exec_start -->
<g id="node2" class="node">
<title>exec_start</title>
<polygon fill="#e0f2fe" stroke="#475569" points="535,-665 335,-665 335,-629 541,-629 541,-659 535,-665"/>
<polyline fill="none" stroke="#475569" points="535,-665 535,-659 "/>
<polyline fill="none" stroke="#475569" points="541,-659 535,-659 "/>
<text text-anchor="middle" x="438" y="-643.3" font-family="Helvetica,sans-Serif" font-size="14.00">ExecStart: simard ooda run</text>
</g>
<!-- systemd_unit&#45;&gt;exec_start -->
<g id="edge1" class="edge">
<title>systemd_unit&#45;&gt;exec_start</title>
<path fill="none" stroke="#475569" d="M240.2,-647C267.74,-647 297.27,-647 324.86,-647"/>
<polygon fill="#475569" stroke="#475569" points="324.94,-650.5 334.94,-647 324.94,-643.5 324.94,-650.5"/>
<text text-anchor="middle" x="287.5" y="-650" font-family="Helvetica,sans-Serif" font-size="10.00">unit renders</text>
</g>
<!-- simard_ooda -->
<g id="node3" class="node">
<title>simard_ooda</title>
<polygon fill="#dbeafe" stroke="#475569" points="774,-666 605,-666 605,-662 601,-662 601,-658 605,-658 605,-636 601,-636 601,-632 605,-632 605,-628 774,-628 774,-666"/>
<polyline fill="none" stroke="#475569" points="605,-662 609,-662 609,-658 605,-658 "/>
<polyline fill="none" stroke="#475569" points="605,-636 609,-636 609,-632 605,-632 "/>
<text text-anchor="middle" x="689.5" y="-650.8" font-family="Helvetica,sans-Serif" font-size="14.00">simard binary</text>
<text text-anchor="middle" x="689.5" y="-635.8" font-family="Helvetica,sans-Serif" font-size="14.00">operator_cli::ooda run</text>
</g>
<!-- exec_start&#45;&gt;simard_ooda -->
<g id="edge2" class="edge">
<title>exec_start&#45;&gt;simard_ooda</title>
<path fill="none" stroke="#475569" d="M541.2,-647C558.86,-647 577.15,-647 594.58,-647"/>
<polygon fill="#475569" stroke="#475569" points="594.73,-650.5 604.73,-647 594.73,-643.5 594.73,-650.5"/>
<text text-anchor="middle" x="573" y="-650" font-family="Helvetica,sans-Serif" font-size="10.00">starts</text>
</g>
<!-- ooda_loop -->
<g id="node4" class="node">
<title>ooda_loop</title>
<path fill="#dbeafe" stroke="#475569" d="M1206.5,-641C1206.5,-641 976.5,-641 976.5,-641 970.5,-641 964.5,-635 964.5,-629 964.5,-629 964.5,-615 964.5,-615 964.5,-609 970.5,-603 976.5,-603 976.5,-603 1206.5,-603 1206.5,-603 1212.5,-603 1218.5,-609 1218.5,-615 1218.5,-615 1218.5,-629 1218.5,-629 1218.5,-635 1212.5,-641 1206.5,-641"/>
<text text-anchor="middle" x="1091.5" y="-625.8" font-family="Helvetica,sans-Serif" font-size="14.00">OODA loop + scheduler</text>
<text text-anchor="middle" x="1091.5" y="-610.8" font-family="Helvetica,sans-Serif" font-size="14.00">src/ooda_loop, src/ooda_scheduler</text>
</g>
<!-- simard_ooda&#45;&gt;ooda_loop -->
<g id="edge3" class="edge">
<title>simard_ooda&#45;&gt;ooda_loop</title>
<path fill="none" stroke="#475569" d="M774.08,-635.71C780.14,-635.07 786.16,-634.49 792,-634 844.93,-629.55 903.29,-626.75 954.26,-624.97"/>
<polygon fill="#475569" stroke="#475569" points="954.48,-628.47 964.35,-624.63 954.24,-621.47 954.48,-628.47"/>
<text text-anchor="middle" x="858" y="-637" font-family="Helvetica,sans-Serif" font-size="10.00">runs</text>
</g>
<!-- overseer -->
<g id="node7" class="node">
<title>overseer</title>
<path fill="#dbeafe" stroke="#475569" d="M1229,-585C1229,-585 954,-585 954,-585 948,-585 942,-579 942,-573 942,-573 942,-559 942,-559 942,-553 948,-547 954,-547 954,-547 1229,-547 1229,-547 1235,-547 1241,-553 1241,-559 1241,-559 1241,-573 1241,-573 1241,-579 1235,-585 1229,-585"/>
<text text-anchor="middle" x="1091.5" y="-569.8" font-family="Helvetica,sans-Serif" font-size="14.00">overseer</text>
<text text-anchor="middle" x="1091.5" y="-554.8" font-family="Helvetica,sans-Serif" font-size="14.00">workstream launch + merge/deploy rails</text>
</g>
<!-- simard_ooda&#45;&gt;overseer -->
<g id="edge8" class="edge">
<title>simard_ooda&#45;&gt;overseer</title>
<path fill="none" stroke="#475569" d="M740.04,-627.93C756.4,-622.17 774.81,-616.25 792,-612 836.93,-600.89 886.37,-591.97 931.86,-585.05"/>
<polygon fill="#475569" stroke="#475569" points="932.44,-588.5 941.81,-583.56 931.4,-581.58 932.44,-588.5"/>
<text text-anchor="middle" x="858" y="-615" font-family="Helvetica,sans-Serif" font-size="10.00">wires</text>
</g>
<!-- cognitive_threads -->
<g id="node8" class="node">
<title>cognitive_threads</title>
<path fill="#dbeafe" stroke="#475569" d="M1196,-865C1196,-865 987,-865 987,-865 981,-865 975,-859 975,-853 975,-853 975,-839 975,-839 975,-833 981,-827 987,-827 987,-827 1196,-827 1196,-827 1202,-827 1208,-833 1208,-839 1208,-839 1208,-853 1208,-853 1208,-859 1202,-865 1196,-865"/>
<text text-anchor="middle" x="1091.5" y="-849.8" font-family="Helvetica,sans-Serif" font-size="14.00">cognitive threads</text>
<text text-anchor="middle" x="1091.5" y="-834.8" font-family="Helvetica,sans-Serif" font-size="14.00">creative ideas, journal, hygiene</text>
</g>
<!-- simard_ooda&#45;&gt;cognitive_threads -->
<g id="edge7" class="edge">
<title>simard_ooda&#45;&gt;cognitive_threads</title>
<path fill="none" stroke="#475569" d="M700.04,-666.43C715.34,-695.49 748.13,-749.95 792,-779 842.86,-812.68 908.17,-829.62 964.72,-838.07"/>
<polygon fill="#475569" stroke="#475569" points="964.42,-841.56 974.81,-839.5 965.4,-834.63 964.42,-841.56"/>
<text text-anchor="middle" x="858" y="-833" font-family="Helvetica,sans-Serif" font-size="10.00">schedules</text>
</g>
<!-- dashboard_task -->
<g id="node9" class="node">
<title>dashboard_task</title>
<path fill="#dbeafe" stroke="#475569" d="M1199,-697C1199,-697 984,-697 984,-697 978,-697 972,-691 972,-685 972,-685 972,-671 972,-671 972,-665 978,-659 984,-659 984,-659 1199,-659 1199,-659 1205,-659 1211,-665 1211,-671 1211,-671 1211,-685 1211,-685 1211,-691 1205,-697 1199,-697"/>
<text text-anchor="middle" x="1091.5" y="-681.8" font-family="Helvetica,sans-Serif" font-size="14.00">embedded dashboard task</text>
<text text-anchor="middle" x="1091.5" y="-666.8" font-family="Helvetica,sans-Serif" font-size="14.00">operator_commands_dashboard</text>
</g>
<!-- simard_ooda&#45;&gt;dashboard_task -->
<g id="edge4" class="edge">
<title>simard_ooda&#45;&gt;dashboard_task</title>
<path fill="none" stroke="#475569" d="M774.35,-653.5C828.6,-657.7 900.31,-663.26 961.71,-668.02"/>
<polygon fill="#475569" stroke="#475569" points="961.62,-671.52 971.86,-668.81 962.16,-664.54 961.62,-671.52"/>
<text text-anchor="middle" x="858" y="-668" font-family="Helvetica,sans-Serif" font-size="10.00">spawns tokio task</text>
</g>
<!-- signal_thread -->
<g id="node10" class="node">
<title>signal_thread</title>
<path fill="#dbeafe" stroke="#475569" d="M1215,-753C1215,-753 968,-753 968,-753 962,-753 956,-747 956,-741 956,-741 956,-727 956,-727 956,-721 962,-715 968,-715 968,-715 1215,-715 1215,-715 1221,-715 1227,-721 1227,-727 1227,-727 1227,-741 1227,-741 1227,-747 1221,-753 1215,-753"/>
<text text-anchor="middle" x="1091.5" y="-737.8" font-family="Helvetica,sans-Serif" font-size="14.00">embedded Signal thread</text>
<text text-anchor="middle" x="1091.5" y="-722.8" font-family="Helvetica,sans-Serif" font-size="14.00">signal_embed + signal_conversation</text>
</g>
<!-- simard_ooda&#45;&gt;signal_thread -->
<g id="edge5" class="edge">
<title>simard_ooda&#45;&gt;signal_thread</title>
<path fill="none" stroke="#475569" d="M744.36,-666.01C759.64,-670.99 776.37,-676.06 792,-680 844.31,-693.17 902.54,-704.45 953.58,-713.23"/>
<polygon fill="#475569" stroke="#475569" points="953.25,-716.73 963.69,-714.96 954.42,-709.83 953.25,-716.73"/>
<text text-anchor="middle" x="858" y="-710" font-family="Helvetica,sans-Serif" font-size="10.00">spawns background thread</text>
</g>
<!-- memory_ipc_server -->
<g id="node11" class="node">
<title>memory_ipc_server</title>
<path fill="#dbeafe" stroke="#475569" d="M1200.5,-809C1200.5,-809 982.5,-809 982.5,-809 976.5,-809 970.5,-803 970.5,-797 970.5,-797 970.5,-783 970.5,-783 970.5,-777 976.5,-771 982.5,-771 982.5,-771 1200.5,-771 1200.5,-771 1206.5,-771 1212.5,-777 1212.5,-783 1212.5,-783 1212.5,-797 1212.5,-797 1212.5,-803 1206.5,-809 1200.5,-809"/>
<text text-anchor="middle" x="1091.5" y="-793.8" font-family="Helvetica,sans-Serif" font-size="14.00">memory&#45;ipc server thread</text>
<text text-anchor="middle" x="1091.5" y="-778.8" font-family="Helvetica,sans-Serif" font-size="14.00">UnixListener + per&#45;conn threads</text>
</g>
<!-- simard_ooda&#45;&gt;memory_ipc_server -->
<g id="edge6" class="edge">
<title>simard_ooda&#45;&gt;memory_ipc_server</title>
<path fill="none" stroke="#475569" d="M711.52,-666.26C731.04,-683.2 761.6,-707.37 792,-722 844.3,-747.17 906.3,-763.24 960.2,-773.39"/>
<polygon fill="#475569" stroke="#475569" points="959.7,-776.86 970.17,-775.22 960.97,-769.97 959.7,-776.86"/>
<text text-anchor="middle" x="858" y="-767" font-family="Helvetica,sans-Serif" font-size="10.00">spawns server thread</text>
</g>
<!-- systemctl_cli -->
<g id="node16" class="node">
<title>systemctl_cli</title>
<path fill="#fef3c7" stroke="#475569" d="M2232.58,-166C2232.58,-166 2101.58,-166 2101.58,-166 2095.58,-166 2089.58,-160 2089.58,-154 2089.58,-154 2089.58,-140 2089.58,-140 2089.58,-134 2095.58,-128 2101.58,-128 2101.58,-128 2232.58,-128 2232.58,-128 2238.58,-128 2244.58,-134 2244.58,-140 2244.58,-140 2244.58,-154 2244.58,-154 2244.58,-160 2238.58,-166 2232.58,-166"/>
<text text-anchor="middle" x="2167.08" y="-150.8" font-family="Helvetica,sans-Serif" font-size="14.00">systemctl &#45;&#45;user</text>
<text text-anchor="middle" x="2167.08" y="-135.8" font-family="Helvetica,sans-Serif" font-size="14.00">restart/status/install</text>
</g>
<!-- simard_ooda&#45;&gt;systemctl_cli -->
<g id="edge37" class="edge">
<title>simard_ooda&#45;&gt;systemctl_cli</title>
<path fill="none" stroke="#475569" d="M706.09,-627.93C767.25,-554.71 1000.16,-290.63 1259,-188 1406.37,-129.57 1882.07,-137.64 2079.23,-143.79"/>
<polygon fill="#475569" stroke="#475569" points="2079.15,-147.29 2089.26,-144.11 2079.37,-140.29 2079.15,-147.29"/>
<text text-anchor="middle" x="1326.5" y="-191" font-family="Helvetica,sans-Serif" font-size="10.00">safe update / self deploy</text>
</g>
<!-- curl_cli -->
<g id="node19" class="node">
<title>curl_cli</title>
<path fill="#fef3c7" stroke="#475569" d="M2264.08,-110C2264.08,-110 2070.08,-110 2070.08,-110 2064.08,-110 2058.08,-104 2058.08,-98 2058.08,-98 2058.08,-84 2058.08,-84 2058.08,-78 2064.08,-72 2070.08,-72 2070.08,-72 2264.08,-72 2264.08,-72 2270.08,-72 2276.08,-78 2276.08,-84 2276.08,-84 2276.08,-98 2276.08,-98 2276.08,-104 2270.08,-110 2264.08,-110"/>
<text text-anchor="middle" x="2167.08" y="-94.8" font-family="Helvetica,sans-Serif" font-size="14.00">curl</text>
<text text-anchor="middle" x="2167.08" y="-79.8" font-family="Helvetica,sans-Serif" font-size="14.00">self&#45;update/download checks</text>
</g>
<!-- simard_ooda&#45;&gt;curl_cli -->
<g id="edge39" class="edge">
<title>simard_ooda&#45;&gt;curl_cli</title>
<path fill="none" stroke="#475569" d="M694.21,-627.77C709.38,-555.16 773.97,-296.47 942,-193 1124.86,-80.39 1777.68,-81.84 2047.78,-87.58"/>
<polygon fill="#475569" stroke="#475569" points="2047.93,-91.08 2058,-87.8 2048.08,-84.08 2047.93,-91.08"/>
<text text-anchor="middle" x="1326.5" y="-117" font-family="Helvetica,sans-Serif" font-size="10.00">release download</text>
</g>
<!-- cargo_cli -->
<g id="node20" class="node">
<title>cargo_cli</title>
<path fill="#fef3c7" stroke="#475569" d="M2243.08,-54C2243.08,-54 2091.08,-54 2091.08,-54 2085.08,-54 2079.08,-48 2079.08,-42 2079.08,-42 2079.08,-28 2079.08,-28 2079.08,-22 2085.08,-16 2091.08,-16 2091.08,-16 2243.08,-16 2243.08,-16 2249.08,-16 2255.08,-22 2255.08,-28 2255.08,-28 2255.08,-42 2255.08,-42 2255.08,-48 2249.08,-54 2243.08,-54"/>
<text text-anchor="middle" x="2167.08" y="-38.8" font-family="Helvetica,sans-Serif" font-size="14.00">cargo</text>
<text text-anchor="middle" x="2167.08" y="-23.8" font-family="Helvetica,sans-Serif" font-size="14.00">canary/build/test gates</text>
</g>
<!-- simard_ooda&#45;&gt;cargo_cli -->
<g id="edge38" class="edge">
<title>simard_ooda&#45;&gt;cargo_cli</title>
<path fill="none" stroke="#475569" d="M689.87,-627.61C688.69,-561.61 692.8,-342.1 792,-204 837.63,-140.48 867.63,-136.19 942,-112 1343.45,18.56 1857.24,-6.92 2068.6,-25.06"/>
<polygon fill="#475569" stroke="#475569" points="2068.47,-28.56 2078.74,-25.94 2069.08,-21.58 2068.47,-28.56"/>
<text text-anchor="middle" x="1326.5" y="-43" font-family="Helvetica,sans-Serif" font-size="10.00">self&#45;test gates</text>
</g>
<!-- journal_files -->
<g id="node29" class="node">
<title>journal_files</title>
<polygon fill="#ede9fe" stroke="#475569" points="1764.04,-1530 1761.04,-1534 1740.04,-1534 1737.04,-1530 1545.04,-1530 1545.04,-1494 1764.04,-1494 1764.04,-1530"/>
<text text-anchor="middle" x="1654.54" y="-1508.3" font-family="Helvetica,sans-Serif" font-size="14.00">journal / health / session files</text>
</g>
<!-- simard_ooda&#45;&gt;journal_files -->
<g id="edge40" class="edge">
<title>simard_ooda&#45;&gt;journal_files</title>
<path fill="none" stroke="#475569" d="M698.61,-666.02C714.39,-702.19 751.25,-782.8 792,-845 971.49,-1118.93 1001.7,-1212.38 1259,-1415 1315.22,-1459.27 1335.2,-1465.31 1404,-1485 1445.79,-1496.96 1492.9,-1503.7 1534.84,-1507.47"/>
<polygon fill="#475569" stroke="#475569" points="1534.56,-1510.96 1544.82,-1508.32 1535.16,-1503.98 1534.56,-1510.96"/>
<text text-anchor="middle" x="1091.5" y="-1398" font-family="Helvetica,sans-Serif" font-size="10.00">health, journal, transcripts</text>
</g>
<!-- typed_ooda -->
<g id="node5" class="node">
<title>typed_ooda</title>
<path fill="#dbeafe" stroke="#475569" d="M1732.54,-653C1732.54,-653 1576.54,-653 1576.54,-653 1570.54,-653 1564.54,-647 1564.54,-641 1564.54,-641 1564.54,-627 1564.54,-627 1564.54,-621 1570.54,-615 1576.54,-615 1576.54,-615 1732.54,-615 1732.54,-615 1738.54,-615 1744.54,-621 1744.54,-627 1744.54,-627 1744.54,-641 1744.54,-641 1744.54,-647 1738.54,-653 1732.54,-653"/>
<text text-anchor="middle" x="1654.54" y="-637.8" font-family="Helvetica,sans-Serif" font-size="14.00">typed OODA actor</text>
<text text-anchor="middle" x="1654.54" y="-622.8" font-family="Helvetica,sans-Serif" font-size="14.00">src/typed_ooda/route.rs</text>
</g>
<!-- ooda_loop&#45;&gt;typed_ooda -->
<g id="edge9" class="edge">
<title>ooda_loop&#45;&gt;typed_ooda</title>
<path fill="none" stroke="#475569" d="M1218.76,-624.7C1320.24,-626.87 1460.81,-629.88 1554.33,-631.88"/>
<polygon fill="#475569" stroke="#475569" points="1554.29,-635.38 1564.37,-632.09 1554.44,-628.38 1554.29,-635.38"/>
<text text-anchor="middle" x="1326.5" y="-632" font-family="Helvetica,sans-Serif" font-size="10.00">typed terminals</text>
</g>
<!-- recipe_runner -->
<g id="node12" class="node">
<title>recipe_runner</title>
<path fill="#fef3c7" stroke="#475569" d="M2250.08,-390C2250.08,-390 2084.08,-390 2084.08,-390 2078.08,-390 2072.08,-384 2072.08,-378 2072.08,-378 2072.08,-364 2072.08,-364 2072.08,-358 2078.08,-352 2084.08,-352 2084.08,-352 2250.08,-352 2250.08,-352 2256.08,-352 2262.08,-358 2262.08,-364 2262.08,-364 2262.08,-378 2262.08,-378 2262.08,-384 2256.08,-390 2250.08,-390"/>
<text text-anchor="middle" x="2167.08" y="-374.8" font-family="Helvetica,sans-Serif" font-size="14.00">recipe&#45;runner&#45;rs</text>
<text text-anchor="middle" x="2167.08" y="-359.8" font-family="Helvetica,sans-Serif" font-size="14.00">recipes / JSON envelopes</text>
</g>
<!-- ooda_loop&#45;&gt;recipe_runner -->
<g id="edge30" class="edge">
<title>ooda_loop&#45;&gt;recipe_runner</title>
<path fill="none" stroke="#475569" d="M1218.8,-606.22C1226.62,-602.83 1234.11,-598.8 1241,-594 1253.76,-585.11 1246.17,-572.79 1259,-564 1330.34,-515.14 1967.78,-518.97 2030.08,-459 2049.55,-440.25 2021.48,-418.62 2040.08,-399 2046.53,-392.19 2054.24,-386.86 2062.63,-382.71"/>
<polygon fill="#475569" stroke="#475569" points="2064.19,-385.85 2071.96,-378.65 2061.4,-379.43 2064.19,-385.85"/>
<text text-anchor="middle" x="1654.54" y="-538" font-family="Helvetica,sans-Serif" font-size="10.00">recipe brains</text>
</g>
<!-- gh_cli -->
<g id="node14" class="node">
<title>gh_cli</title>
<path fill="#fef3c7" stroke="#475569" d="M2274.08,-334C2274.08,-334 2060.08,-334 2060.08,-334 2054.08,-334 2048.08,-328 2048.08,-322 2048.08,-322 2048.08,-308 2048.08,-308 2048.08,-302 2054.08,-296 2060.08,-296 2060.08,-296 2274.08,-296 2274.08,-296 2280.08,-296 2286.08,-302 2286.08,-308 2286.08,-308 2286.08,-322 2286.08,-322 2286.08,-328 2280.08,-334 2274.08,-334"/>
<text text-anchor="middle" x="2167.08" y="-318.8" font-family="Helvetica,sans-Serif" font-size="14.00">gh CLI</text>
<text text-anchor="middle" x="2167.08" y="-303.8" font-family="Helvetica,sans-Serif" font-size="14.00">issues, PRs, CI, merge evidence</text>
</g>
<!-- ooda_loop&#45;&gt;gh_cli -->
<g id="edge34" class="edge">
<title>ooda_loop&#45;&gt;gh_cli</title>
<path fill="none" stroke="#475569" d="M1218.8,-610.86C1227.03,-606.46 1234.58,-600.93 1241,-594 1290.53,-540.53 1207.99,-483.06 1259,-431 1379.36,-308.17 1889.07,-463.46 2030.08,-365 2038.88,-358.85 2031.73,-349.77 2040.08,-343 2041.48,-341.86 2042.92,-340.76 2044.4,-339.71"/>
<polygon fill="#475569" stroke="#475569" points="2046.62,-342.44 2053.19,-334.13 2042.87,-336.54 2046.62,-342.44"/>
<text text-anchor="middle" x="1654.54" y="-403" font-family="Helvetica,sans-Serif" font-size="10.00">issues/PR evidence</text>
</g>
<!-- git_cli -->
<g id="node15" class="node">
<title>git_cli</title>
<path fill="#fef3c7" stroke="#475569" d="M2239.08,-278C2239.08,-278 2095.08,-278 2095.08,-278 2089.08,-278 2083.08,-272 2083.08,-266 2083.08,-266 2083.08,-252 2083.08,-252 2083.08,-246 2089.08,-240 2095.08,-240 2095.08,-240 2239.08,-240 2239.08,-240 2245.08,-240 2251.08,-246 2251.08,-252 2251.08,-252 2251.08,-266 2251.08,-266 2251.08,-272 2245.08,-278 2239.08,-278"/>
<text text-anchor="middle" x="2167.08" y="-262.8" font-family="Helvetica,sans-Serif" font-size="14.00">git CLI</text>
<text text-anchor="middle" x="2167.08" y="-247.8" font-family="Helvetica,sans-Serif" font-size="14.00">status, diff, worktrees</text>
</g>
<!-- ooda_loop&#45;&gt;git_cli -->
<g id="edge33" class="edge">
<title>ooda_loop&#45;&gt;git_cli</title>
<path fill="none" stroke="#475569" d="M1218.65,-611.22C1226.98,-606.76 1234.58,-601.11 1241,-594 1272.83,-558.74 1225.78,-414.96 1259,-381 1309.48,-329.39 1833.73,-323.03 1905.08,-312 1936.94,-307.07 2011.57,-291.78 2072.9,-278.88"/>
<polygon fill="#475569" stroke="#475569" points="2073.94,-282.24 2083.01,-276.75 2072.5,-275.39 2073.94,-282.24"/>
<text text-anchor="middle" x="1654.54" y="-349" font-family="Helvetica,sans-Serif" font-size="10.00">observe repo state</text>
</g>
<!-- memory_socket -->
<g id="node25" class="node">
<title>memory_socket</title>
<path fill="#ede9fe" stroke="#475569" d="M2278.08,-1503.76C2278.08,-1507.41 2228.32,-1510.38 2167.08,-1510.38 2105.83,-1510.38 2056.08,-1507.41 2056.08,-1503.76 2056.08,-1503.76 2056.08,-1444.24 2056.08,-1444.24 2056.08,-1440.59 2105.83,-1437.62 2167.08,-1437.62 2228.32,-1437.62 2278.08,-1440.59 2278.08,-1444.24 2278.08,-1444.24 2278.08,-1503.76 2278.08,-1503.76"/>
<path fill="none" stroke="#475569" d="M2278.08,-1503.76C2278.08,-1500.11 2228.32,-1497.15 2167.08,-1497.15 2105.83,-1497.15 2056.08,-1500.11 2056.08,-1503.76"/>
<text text-anchor="middle" x="2167.08" y="-1485.3" font-family="Helvetica,sans-Serif" font-size="14.00">memory IPC socket</text>
<text text-anchor="middle" x="2167.08" y="-1470.3" font-family="Helvetica,sans-Serif" font-size="14.00">&lt;state_root&gt;/memory.sock</text>
<text text-anchor="middle" x="2167.08" y="-1455.3" font-family="Helvetica,sans-Serif" font-size="14.00">or SIMARD_MEMORY_SOCKET</text>
</g>
<!-- ooda_loop&#45;&gt;memory_socket -->
<g id="edge25" class="edge">
<title>ooda_loop&#45;&gt;memory_socket</title>
<path fill="none" stroke="#475569" d="M1218.64,-632.3C1227.03,-636.86 1234.65,-642.66 1241,-650 1271.86,-685.65 1234.9,-1033.47 1259,-1074 1297.41,-1138.6 1332.47,-1137.93 1404,-1161 1536.92,-1203.87 1914.39,-1137.76 2030.08,-1216 2103.42,-1265.61 2140.03,-1367.84 2155.86,-1427.65"/>
<polygon fill="#475569" stroke="#475569" points="2152.53,-1428.76 2158.4,-1437.58 2159.31,-1427.03 2152.53,-1428.76"/>
<text text-anchor="middle" x="1654.54" y="-1183" font-family="Helvetica,sans-Serif" font-size="10.00">read/write memory</text>
</g>
<!-- engineer_loop -->
<g id="node6" class="node">
<title>engineer_loop</title>
<path fill="#dbeafe" stroke="#475569" d="M2243.08,-621C2243.08,-621 2091.08,-621 2091.08,-621 2085.08,-621 2079.08,-615 2079.08,-609 2079.08,-609 2079.08,-595 2079.08,-595 2079.08,-589 2085.08,-583 2091.08,-583 2091.08,-583 2243.08,-583 2243.08,-583 2249.08,-583 2255.08,-589 2255.08,-595 2255.08,-595 2255.08,-609 2255.08,-609 2255.08,-615 2249.08,-621 2243.08,-621"/>
<text text-anchor="middle" x="2167.08" y="-605.8" font-family="Helvetica,sans-Serif" font-size="14.00">engineer/goal sessions</text>
<text text-anchor="middle" x="2167.08" y="-590.8" font-family="Helvetica,sans-Serif" font-size="14.00">recipe&#45;backed actors</text>
</g>
<!-- typed_ooda&#45;&gt;engineer_loop -->
<g id="edge10" class="edge">
<title>typed_ooda&#45;&gt;engineer_loop</title>
<path fill="none" stroke="#475569" d="M1744.75,-638.33C1820.82,-640.82 1932.95,-641.63 2030.08,-631 2046.27,-629.23 2063.38,-626.37 2079.8,-623.13"/>
<polygon fill="#475569" stroke="#475569" points="2080.81,-626.5 2089.91,-621.07 2079.42,-619.64 2080.81,-626.5"/>
<text text-anchor="middle" x="1972.58" y="-642" font-family="Helvetica,sans-Serif" font-size="10.00">goal&#45;session action</text>
</g>
<!-- typed_ooda&#45;&gt;recipe_runner -->
<g id="edge29" class="edge">
<title>typed_ooda&#45;&gt;recipe_runner</title>
<path fill="none" stroke="#475569" d="M1744.94,-631.42C1844.08,-626.44 1994.76,-611.84 2030.08,-569 2054.15,-539.8 2015.54,-427.81 2040.08,-399 2046.38,-391.59 2054.18,-385.89 2062.77,-381.53"/>
<polygon fill="#475569" stroke="#475569" points="2064.25,-384.71 2071.98,-377.46 2061.42,-378.3 2064.25,-384.71"/>
<text text-anchor="middle" x="1972.58" y="-617" font-family="Helvetica,sans-Serif" font-size="10.00">goal&#45;session spawn</text>
</g>
<!-- engineer_loop&#45;&gt;recipe_runner -->
<g id="edge28" class="edge">
<title>engineer_loop&#45;&gt;recipe_runner</title>
<path fill="none" stroke="#475569" d="M2078.75,-608.62C2040.3,-606.37 1998.35,-595.97 1973.08,-565.5 1922.15,-504.1 1978.58,-449.8 2040.08,-399 2046.84,-393.41 2054.48,-388.87 2062.57,-385.2"/>
<polygon fill="#475569" stroke="#475569" points="2063.94,-388.42 2071.88,-381.4 2061.3,-381.94 2063.94,-388.42"/>
<text text-anchor="middle" x="1972.58" y="-557.5" font-family="Helvetica,sans-Serif" font-size="10.00">spawn recipe</text>
</g>
<!-- amplihack_cli -->
<g id="node13" class="node">
<title>amplihack_cli</title>
<path fill="#fef3c7" stroke="#475569" d="M2236.58,-222C2236.58,-222 2097.58,-222 2097.58,-222 2091.58,-222 2085.58,-216 2085.58,-210 2085.58,-210 2085.58,-196 2085.58,-196 2085.58,-190 2091.58,-184 2097.58,-184 2097.58,-184 2236.58,-184 2236.58,-184 2242.58,-184 2248.58,-190 2248.58,-196 2248.58,-196 2248.58,-210 2248.58,-210 2248.58,-216 2242.58,-222 2236.58,-222"/>
<text text-anchor="middle" x="2167.08" y="-206.8" font-family="Helvetica,sans-Serif" font-size="14.00">amplihack recipe run</text>
<text text-anchor="middle" x="2167.08" y="-191.8" font-family="Helvetica,sans-Serif" font-size="14.00">smart&#45;orchestrator</text>
</g>
<!-- overseer&#45;&gt;amplihack_cli -->
<g id="edge27" class="edge">
<title>overseer&#45;&gt;amplihack_cli</title>
<path fill="none" stroke="#475569" d="M1096.64,-546.67C1109.65,-490.9 1155.19,-328.63 1259,-250 1385.16,-154.44 1871.19,-179.84 2075.15,-195.27"/>
<polygon fill="#475569" stroke="#475569" points="2075,-198.76 2085.24,-196.04 2075.53,-191.78 2075,-198.76"/>
<text text-anchor="middle" x="1654.54" y="-202" font-family="Helvetica,sans-Serif" font-size="10.00">spawn smart&#45;orchestrator</text>
</g>
<!-- overseer&#45;&gt;gh_cli -->
<g id="edge36" class="edge">
<title>overseer&#45;&gt;gh_cli</title>
<path fill="none" stroke="#475569" d="M1100.06,-546.84C1119.06,-501.54 1173.43,-387.85 1259,-337 1386.8,-261.05 1819.26,-285.14 2037.65,-303.03"/>
<polygon fill="#475569" stroke="#475569" points="2037.63,-306.54 2047.88,-303.88 2038.2,-299.57 2037.63,-306.54"/>
<text text-anchor="middle" x="1654.54" y="-300" font-family="Helvetica,sans-Serif" font-size="10.00">PR merge/CI evidence</text>
</g>
<!-- overseer&#45;&gt;git_cli -->
<g id="edge35" class="edge">
<title>overseer&#45;&gt;git_cli</title>
<path fill="none" stroke="#475569" d="M1098.22,-546.8C1114.31,-496.43 1165,-360.01 1259,-296 1389.11,-207.4 1868.44,-234.54 2072.79,-250.74"/>
<polygon fill="#475569" stroke="#475569" points="2072.66,-254.24 2082.91,-251.55 2073.22,-247.26 2072.66,-254.24"/>
<text text-anchor="middle" x="1654.54" y="-254" font-family="Helvetica,sans-Serif" font-size="10.00">conflict/deploy checks</text>
</g>
<!-- loopback_listener -->
<g id="node24" class="node">
<title>loopback_listener</title>
<ellipse fill="#dcfce7" stroke="#475569" cx="1654.54" cy="-937" rx="166.75" ry="26.74"/>
<text text-anchor="middle" x="1654.54" y="-940.8" font-family="Helvetica,sans-Serif" font-size="14.00">loopback listener</text>
<text text-anchor="middle" x="1654.54" y="-925.8" font-family="Helvetica,sans-Serif" font-size="14.00">127.0.0.1:0 test/probe listeners</text>
</g>
<!-- overseer&#45;&gt;loopback_listener -->
<g id="edge41" class="edge">
<title>overseer&#45;&gt;loopback_listener</title>
<path fill="none" stroke="#475569" d="M1228.58,-585.04C1232.94,-587.71 1237.11,-590.68 1241,-594 1258.98,-609.32 1242.92,-626.7 1259,-644 1303.71,-692.08 1356.82,-649.88 1394,-704 1406.22,-721.79 1389.55,-881.97 1404,-898 1424.66,-920.92 1452.83,-934.19 1482.81,-941.38"/>
<polygon fill="#475569" stroke="#475569" points="1482.08,-944.8 1492.59,-943.5 1483.56,-937.96 1482.08,-944.8"/>
<text text-anchor="middle" x="1326.5" y="-707" font-family="Helvetica,sans-Serif" font-size="10.00">JSON&#45;RPC test/probe path</text>
</g>
<!-- cognitive_threads&#45;&gt;memory_socket -->
<g id="edge26" class="edge">
<title>cognitive_threads&#45;&gt;memory_socket</title>
<path fill="none" stroke="#475569" d="M1095.33,-865.2C1108.88,-954.36 1170.21,-1326.66 1259,-1395 1287.46,-1416.91 1869.43,-1413.58 1905.08,-1418 1951.57,-1423.77 2002.05,-1433.72 2046.12,-1443.64"/>
<polygon fill="#475569" stroke="#475569" points="2045.47,-1447.09 2056,-1445.89 2047.03,-1440.26 2045.47,-1447.09"/>
<text text-anchor="middle" x="1654.54" y="-1421" font-family="Helvetica,sans-Serif" font-size="10.00">distill / creative ideas</text>
</g>
<!-- dashboard_task&#45;&gt;gh_cli -->
<g id="edge14" class="edge">
<title>dashboard_task&#45;&gt;gh_cli</title>
<path fill="none" stroke="#475569" d="M1211.3,-669.29C1222.29,-664.63 1232.48,-658.36 1241,-650 1268.89,-622.66 1236.2,-595.7 1259,-564 1302.61,-503.35 1333.3,-503.11 1404,-479 1536.83,-433.7 1929.08,-493.45 2030.08,-396 2047.32,-379.35 2023.4,-360.22 2040.08,-343 2040.87,-342.17 2041.69,-341.37 2042.53,-340.59"/>
<polygon fill="#475569" stroke="#475569" points="2044.94,-343.14 2050.48,-334.11 2040.52,-337.71 2044.94,-343.14"/>
<text text-anchor="middle" x="1654.54" y="-482" font-family="Helvetica,sans-Serif" font-size="10.00">issues / PR readiness</text>
</g>
<!-- tmux_cli -->
<g id="node17" class="node">
<title>tmux_cli</title>
<path fill="#fef3c7" stroke="#475569" d="M2221.58,-502C2221.58,-502 2112.58,-502 2112.58,-502 2106.58,-502 2100.58,-496 2100.58,-490 2100.58,-490 2100.58,-476 2100.58,-476 2100.58,-470 2106.58,-464 2112.58,-464 2112.58,-464 2221.58,-464 2221.58,-464 2227.58,-464 2233.58,-470 2233.58,-476 2233.58,-476 2233.58,-490 2233.58,-490 2233.58,-496 2227.58,-502 2221.58,-502"/>
<text text-anchor="middle" x="2167.08" y="-486.8" font-family="Helvetica,sans-Serif" font-size="14.00">tmux</text>
<text text-anchor="middle" x="2167.08" y="-471.8" font-family="Helvetica,sans-Serif" font-size="14.00">sessions / attach</text>
</g>
<!-- dashboard_task&#45;&gt;tmux_cli -->
<g id="edge16" class="edge">
<title>dashboard_task&#45;&gt;tmux_cli</title>
<path fill="none" stroke="#475569" d="M1211.16,-664.92C1221.72,-661.05 1231.86,-656.16 1241,-650 1253.27,-641.73 1246.72,-630.25 1259,-622 1313.41,-585.43 1338.86,-602.38 1404,-595 1438.59,-591.08 2002.64,-590.43 2030.08,-569 2042.49,-559.3 2029.54,-546.71 2040.08,-535 2053.62,-519.95 2072.18,-509.15 2090.89,-501.45"/>
<polygon fill="#475569" stroke="#475569" points="2092.29,-504.66 2100.37,-497.8 2089.78,-498.12 2092.29,-504.66"/>
<text text-anchor="middle" x="1654.54" y="-598" font-family="Helvetica,sans-Serif" font-size="10.00">session inventory / attach</text>
</g>
<!-- journalctl_cli -->
<g id="node18" class="node">
<title>journalctl_cli</title>
<path fill="#fef3c7" stroke="#475569" d="M2205.08,-446C2205.08,-446 2129.08,-446 2129.08,-446 2123.08,-446 2117.08,-440 2117.08,-434 2117.08,-434 2117.08,-420 2117.08,-420 2117.08,-414 2123.08,-408 2129.08,-408 2129.08,-408 2205.08,-408 2205.08,-408 2211.08,-408 2217.08,-414 2217.08,-420 2217.08,-420 2217.08,-434 2217.08,-434 2217.08,-440 2211.08,-446 2205.08,-446"/>
<text text-anchor="middle" x="2167.08" y="-430.8" font-family="Helvetica,sans-Serif" font-size="14.00">journalctl</text>
<text text-anchor="middle" x="2167.08" y="-415.8" font-family="Helvetica,sans-Serif" font-size="14.00">logs/activity</text>
</g>
<!-- dashboard_task&#45;&gt;journalctl_cli -->
<g id="edge15" class="edge">
<title>dashboard_task&#45;&gt;journalctl_cli</title>
<path fill="none" stroke="#475569" d="M1211.21,-668.11C1222.08,-663.65 1232.27,-657.75 1241,-650 1260.87,-632.37 1238.99,-610.47 1259,-593 1308.26,-549.99 1339.2,-576.78 1404,-568 1542.54,-549.22 1926.64,-600.06 2030.08,-506 2047.16,-490.46 2023.95,-471.54 2040.08,-455 2057.32,-437.31 2083.09,-429.67 2106.83,-426.69"/>
<polygon fill="#475569" stroke="#475569" points="2107.25,-430.17 2116.85,-425.69 2106.55,-423.2 2107.25,-430.17"/>
<text text-anchor="middle" x="1654.54" y="-571" font-family="Helvetica,sans-Serif" font-size="10.00">logs</text>
</g>
<!-- dashboard_port -->
<g id="node22" class="node">
<title>dashboard_port</title>
<ellipse fill="#dcfce7" stroke="#475569" cx="1654.54" cy="-1019" rx="242.58" ry="37.45"/>
<text text-anchor="middle" x="1654.54" y="-1030.3" font-family="Helvetica,sans-Serif" font-size="14.00">dashboard HTTP/WebSocket</text>
<text text-anchor="middle" x="1654.54" y="-1015.3" font-family="Helvetica,sans-Serif" font-size="14.00">0.0.0.0:8080 default</text>
<text text-anchor="middle" x="1654.54" y="-1000.3" font-family="Helvetica,sans-Serif" font-size="14.00">SIMARD_DASHBOARD_PORT / &#45;&#45;dashboard&#45;port</text>
</g>
<!-- dashboard_task&#45;&gt;dashboard_port -->
<g id="edge11" class="edge">
<title>dashboard_task&#45;&gt;dashboard_port</title>
<path fill="none" stroke="#475569" d="M1211.33,-692.28C1221.74,-695.92 1231.8,-700.43 1241,-706 1334.92,-762.9 1351.04,-798.94 1394,-900 1406.81,-930.14 1381.38,-949.32 1404,-973 1412.56,-981.96 1422.24,-989.51 1432.71,-995.84"/>
<polygon fill="#475569" stroke="#475569" points="1431.25,-999.04 1441.68,-1000.89 1434.68,-992.93 1431.25,-999.04"/>
<text text-anchor="middle" x="1326.5" y="-903" font-family="Helvetica,sans-Serif" font-size="10.00">axum HTTP + WS</text>
</g>
<!-- dashboard_task&#45;&gt;memory_socket -->
<g id="edge13" class="edge">
<title>dashboard_task&#45;&gt;memory_socket</title>
<path fill="none" stroke="#475569" d="M1211.03,-684.51C1222.43,-689.5 1232.79,-696.45 1241,-706 1276.61,-747.38 1220.94,-1157.86 1259,-1197 1378.7,-1320.11 1883.5,-1157.56 2030.08,-1247 2096.53,-1287.55 2134.6,-1373.88 2152.74,-1427.61"/>
<polygon fill="#475569" stroke="#475569" points="2149.46,-1428.84 2155.9,-1437.25 2156.11,-1426.66 2149.46,-1428.84"/>
<text text-anchor="middle" x="1654.54" y="-1248" font-family="Helvetica,sans-Serif" font-size="10.00">tier&#45;1 memory client</text>
</g>
<!-- dashkey -->
<g id="node28" class="node">
<title>dashkey</title>
<polygon fill="#ede9fe" stroke="#475569" points="1737.54,-1476 1734.54,-1480 1713.54,-1480 1710.54,-1476 1571.54,-1476 1571.54,-1438 1737.54,-1438 1737.54,-1476"/>
<text text-anchor="middle" x="1654.54" y="-1460.8" font-family="Helvetica,sans-Serif" font-size="14.00">~/.simard/.dashkey</text>
<text text-anchor="middle" x="1654.54" y="-1445.8" font-family="Helvetica,sans-Serif" font-size="14.00">dashboard login code</text>
</g>
<!-- dashboard_task&#45;&gt;dashkey -->
<g id="edge12" class="edge">
<title>dashboard_task&#45;&gt;dashkey</title>
<path fill="none" stroke="#475569" d="M1211.06,-684.49C1222.46,-689.48 1232.8,-696.44 1241,-706 1279.94,-751.4 1238.17,-1187.93 1259,-1244 1294.78,-1340.29 1314.45,-1373.66 1404,-1424 1451.49,-1450.69 1511.9,-1459.21 1561.39,-1460.93"/>
<polygon fill="#475569" stroke="#475569" points="1561.36,-1464.43 1571.45,-1461.19 1561.55,-1457.44 1561.36,-1464.43"/>
<text text-anchor="middle" x="1326.5" y="-1421" font-family="Helvetica,sans-Serif" font-size="10.00">read/write login code</text>
</g>
<!-- llm_agent -->
<g id="node21" class="node">
<title>llm_agent</title>
<path fill="#fef3c7" stroke="#475569" d="M2611.58,-390C2611.58,-390 2455.58,-390 2455.58,-390 2449.58,-390 2443.58,-384 2443.58,-378 2443.58,-378 2443.58,-364 2443.58,-364 2443.58,-358 2449.58,-352 2455.58,-352 2455.58,-352 2611.58,-352 2611.58,-352 2617.58,-352 2623.58,-358 2623.58,-364 2623.58,-364 2623.58,-378 2623.58,-378 2623.58,-384 2617.58,-390 2611.58,-390"/>
<text text-anchor="middle" x="2533.58" y="-374.8" font-family="Helvetica,sans-Serif" font-size="14.00">provider agent binary</text>
<text text-anchor="middle" x="2533.58" y="-359.8" font-family="Helvetica,sans-Serif" font-size="14.00">Copilot/Claude via stdio</text>
</g>
<!-- signal_thread&#45;&gt;llm_agent -->
<g id="edge20" class="edge">
<title>signal_thread&#45;&gt;llm_agent</title>
<path fill="none" stroke="#475569" d="M1227.2,-749.56C1232.24,-753.11 1236.89,-757.23 1241,-762 1275.19,-801.67 1224.11,-1193.95 1259,-1233 1309.58,-1289.61 1738.12,-1341.23 1905.08,-1255 2279.54,-1061.59 2479.03,-530.13 2523.13,-400.03"/>
<polygon fill="#475569" stroke="#475569" points="2526.51,-400.95 2526.37,-390.36 2519.88,-398.73 2526.51,-400.95"/>
<text text-anchor="middle" x="1972.58" y="-1247" font-family="Helvetica,sans-Serif" font-size="10.00">meeting backend proxy</text>
</g>
<!-- signal_rpc -->
<g id="node23" class="node">
<title>signal_rpc</title>
<ellipse fill="#dcfce7" stroke="#475569" cx="1654.54" cy="-1101" rx="149.81" ry="26.74"/>
<text text-anchor="middle" x="1654.54" y="-1104.8" font-family="Helvetica,sans-Serif" font-size="14.00">signal&#45;cli JSON&#45;RPC daemon</text>
<text text-anchor="middle" x="1654.54" y="-1089.8" font-family="Helvetica,sans-Serif" font-size="14.00">127.0.0.1:7583 default</text>
</g>
<!-- signal_thread&#45;&gt;signal_rpc -->
<g id="edge17" class="edge">
<title>signal_thread&#45;&gt;signal_rpc</title>
<path fill="none" stroke="#475569" d="M1227.18,-750.07C1232.19,-753.5 1236.84,-757.45 1241,-762 1269.01,-792.65 1239.3,-911.44 1259,-948 1298.28,-1020.9 1328.09,-1031.91 1404,-1065 1433.91,-1078.04 1467.56,-1086.54 1500.23,-1092.03"/>
<polygon fill="#475569" stroke="#475569" points="1499.91,-1095.52 1510.33,-1093.64 1501.01,-1088.61 1499.91,-1095.52"/>
<text text-anchor="middle" x="1326.5" y="-1062" font-family="Helvetica,sans-Serif" font-size="10.00">newline JSON&#45;RPC over TCP</text>
</g>
<!-- signal_thread&#45;&gt;memory_socket -->
<g id="edge19" class="edge">
<title>signal_thread&#45;&gt;memory_socket</title>
<path fill="none" stroke="#475569" d="M1227.22,-749.54C1232.26,-753.1 1236.9,-757.22 1241,-762 1278.73,-805.95 1219.44,-1240.69 1259,-1283 1308.28,-1335.71 1834.49,-1334 1905.08,-1349 1962.27,-1361.15 1977.06,-1365.35 2030.08,-1390 2055.51,-1401.82 2082.07,-1417.41 2104.89,-1431.94"/>
<polygon fill="#475569" stroke="#475569" points="2103.14,-1434.98 2113.44,-1437.45 2106.93,-1429.09 2103.14,-1434.98"/>
<text text-anchor="middle" x="1654.54" y="-1352" font-family="Helvetica,sans-Serif" font-size="10.00">meeting memory via launcher</text>
</g>
<!-- memory_ipc_server&#45;&gt;memory_socket -->
<g id="edge21" class="edge">
<title>memory_ipc_server&#45;&gt;memory_socket</title>
<path fill="none" stroke="#475569" d="M1212.81,-797.3C1223.52,-802.23 1233.22,-808.95 1241,-818 1278.02,-861.09 1220.12,-1287.57 1259,-1329 1308.36,-1381.6 1833.61,-1383.19 1905.08,-1393 1960.96,-1400.67 1976.05,-1398.77 2030.08,-1415 2047.55,-1420.25 2065.77,-1427.11 2082.98,-1434.29"/>
<polygon fill="#475569" stroke="#475569" points="2081.86,-1437.62 2092.43,-1438.31 2084.6,-1431.18 2081.86,-1437.62"/>
<text text-anchor="middle" x="1654.54" y="-1396" font-family="Helvetica,sans-Serif" font-size="10.00">Unix&#45;domain framed JSON</text>
</g>
<!-- recipe_runner&#45;&gt;llm_agent -->
<g id="edge31" class="edge">
<title>recipe_runner&#45;&gt;llm_agent</title>
<path fill="none" stroke="#475569" d="M2262.42,-371C2314.83,-371 2380,-371 2433.2,-371"/>
<polygon fill="#475569" stroke="#475569" points="2433.33,-374.5 2443.33,-371 2433.33,-367.5 2433.33,-374.5"/>
<text text-anchor="middle" x="2357.08" y="-374" font-family="Helvetica,sans-Serif" font-size="10.00">agent subprocess</text>
</g>
<!-- amplihack_cli&#45;&gt;llm_agent -->
<g id="edge32" class="edge">
<title>amplihack_cli&#45;&gt;llm_agent</title>
<path fill="none" stroke="#475569" d="M2248.68,-218.89C2261.38,-222.31 2274.22,-226.34 2286.08,-231 2365.24,-262.14 2449.89,-315.06 2496.52,-346.15"/>
<polygon fill="#475569" stroke="#475569" points="2494.79,-349.2 2505.05,-351.87 2498.69,-343.39 2494.79,-349.2"/>
<text text-anchor="middle" x="2357.08" y="-293" font-family="Helvetica,sans-Serif" font-size="10.00">workflow agents</text>
</g>
<!-- signal_rpc&#45;&gt;signal_thread -->
<g id="edge18" class="edge">
<title>signal_rpc&#45;&gt;signal_thread</title>
<path fill="none" stroke="#475569" d="M1519.18,-1112.6C1476.72,-1108.96 1433.29,-1096.34 1404,-1065 1383.91,-1043.51 1413.89,-954.68 1394,-933 1352.9,-888.21 1301.09,-954.86 1259,-911 1212.82,-862.87 1286.58,-810.7 1241,-762 1239.16,-760.03 1237.22,-758.17 1235.21,-756.43"/>
<polygon fill="#475569" stroke="#475569" points="1237.12,-753.48 1227.05,-750.2 1232.87,-759.05 1237.12,-753.48"/>
<text text-anchor="middle" x="1326.5" y="-936" font-family="Helvetica,sans-Serif" font-size="10.00">receive events</text>
</g>
<!-- lbug_store -->
<g id="node26" class="node">
<title>lbug_store</title>
<path fill="#ede9fe" stroke="#475569" d="M2639.08,-1556.48C2639.08,-1559.11 2591.79,-1561.25 2533.58,-1561.25 2475.36,-1561.25 2428.08,-1559.11 2428.08,-1556.48 2428.08,-1556.48 2428.08,-1513.52 2428.08,-1513.52 2428.08,-1510.89 2475.36,-1508.75 2533.58,-1508.75 2591.79,-1508.75 2639.08,-1510.89 2639.08,-1513.52 2639.08,-1513.52 2639.08,-1556.48 2639.08,-1556.48"/>
<path fill="none" stroke="#475569" d="M2639.08,-1556.48C2639.08,-1553.84 2591.79,-1551.7 2533.58,-1551.7 2475.36,-1551.7 2428.08,-1553.84 2428.08,-1556.48"/>
<text text-anchor="middle" x="2533.58" y="-1538.8" font-family="Helvetica,sans-Serif" font-size="14.00">embedded lbug graph store</text>
<text text-anchor="middle" x="2533.58" y="-1523.8" font-family="Helvetica,sans-Serif" font-size="14.00">amplihack&#45;memory&#45;lib</text>
</g>
<!-- memory_socket&#45;&gt;lbug_store -->
<g id="edge22" class="edge">
<title>memory_socket&#45;&gt;lbug_store</title>
<path fill="none" stroke="#475569" d="M2278.43,-1492.47C2322.55,-1499.85 2373.37,-1508.36 2417.91,-1515.81"/>
<polygon fill="#475569" stroke="#475569" points="2417.46,-1519.28 2427.9,-1517.48 2418.62,-1512.38 2417.46,-1519.28"/>
<text text-anchor="middle" x="2357.08" y="-1516" font-family="Helvetica,sans-Serif" font-size="10.00">CognitiveMemoryOps</text>
</g>
<!-- state_root -->
<g id="node27" class="node">
<title>state_root</title>
<polygon fill="#ede9fe" stroke="#475569" points="1743.04,-1586 1740.04,-1590 1719.04,-1590 1716.04,-1586 1566.04,-1586 1566.04,-1548 1743.04,-1548 1743.04,-1586"/>
<text text-anchor="middle" x="1654.54" y="-1570.8" font-family="Helvetica,sans-Serif" font-size="14.00">SIMARD_STATE_ROOT</text>
<text text-anchor="middle" x="1654.54" y="-1555.8" font-family="Helvetica,sans-Serif" font-size="14.00">~/.simard/state default</text>
</g>
<!-- state_root&#45;&gt;memory_socket -->
<g id="edge23" class="edge">
<title>state_root&#45;&gt;memory_socket</title>
<path fill="none" stroke="#475569" d="M1743.14,-1560.03C1791.18,-1555.49 1851.66,-1548.61 1905.08,-1539 1951.54,-1530.64 2002.02,-1518.75 2046.08,-1507.42"/>
<polygon fill="#475569" stroke="#475569" points="2047.16,-1510.75 2055.97,-1504.86 2045.41,-1503.98 2047.16,-1510.75"/>
<text text-anchor="middle" x="1972.58" y="-1539" font-family="Helvetica,sans-Serif" font-size="10.00">contains</text>
</g>
<!-- state_root&#45;&gt;lbug_store -->
<g id="edge24" class="edge">
<title>state_root&#45;&gt;lbug_store</title>
<path fill="none" stroke="#475569" d="M1743.24,-1563.8C1902.72,-1557.98 2240.11,-1545.67 2417.71,-1539.19"/>
<polygon fill="#475569" stroke="#475569" points="2418,-1542.68 2427.87,-1538.82 2417.75,-1535.69 2418,-1542.68"/>
<text text-anchor="middle" x="2167.08" y="-1555" font-family="Helvetica,sans-Serif" font-size="10.00">contains</text>
</g>
</g>
</svg>
