<?xml version="1.0" encoding="UTF-8" standalone="no"?>
<!DOCTYPE svg PUBLIC "-//W3C//DTD SVG 1.1//EN"
 "http://www.w3.org/Graphics/SVG/1.1/DTD/svg11.dtd">
<!-- Generated by graphviz version 2.42.4 (0)
 -->
<!-- Title: runtime_topology Pages: 1 -->
<svg width="1468pt" height="662pt"
 viewBox="0.00 0.00 1468.00 661.50" xmlns="http://www.w3.org/2000/svg" xmlns:xlink="http://www.w3.org/1999/xlink">
<g id="graph0" class="graph" transform="scale(1 1) rotate(0) translate(4 657.5)">
<title>runtime_topology</title>
<polygon fill="white" stroke="transparent" points="-4,4 -4,-657.5 1464,-657.5 1464,4 -4,4"/>
<text text-anchor="middle" x="730" y="-638.3" font-family="Helvetica,sans-Serif" font-size="14.00">Simard — Runtime Topology (processes, async tasks, IPC/RPC channels)</text>
<g id="clust1" class="cluster">
<title>cluster_entry</title>
<path fill="#f6f6f6" stroke="#999999" d="M823,-460.5C823,-460.5 1023,-460.5 1023,-460.5 1029,-460.5 1035,-466.5 1035,-472.5 1035,-472.5 1035,-610.5 1035,-610.5 1035,-616.5 1029,-622.5 1023,-622.5 1023,-622.5 823,-622.5 823,-622.5 817,-622.5 811,-616.5 811,-610.5 811,-610.5 811,-472.5 811,-472.5 811,-466.5 817,-460.5 823,-460.5"/>
<text text-anchor="middle" x="923" y="-607.3" font-family="Helvetica,sans-Serif" font-size="14.00">Entrypoint / dispatch</text>
</g>
<g id="clust2" class="cluster">
<title>cluster_surfaces</title>
<path fill="#f2f8f2" stroke="#7fa87f" d="M433,-364.5C433,-364.5 1413,-364.5 1413,-364.5 1419,-364.5 1425,-370.5 1425,-376.5 1425,-376.5 1425,-429.5 1425,-429.5 1425,-435.5 1419,-441.5 1413,-441.5 1413,-441.5 433,-441.5 433,-441.5 427,-441.5 421,-435.5 421,-429.5 421,-429.5 421,-376.5 421,-376.5 421,-370.5 427,-364.5 433,-364.5"/>
<text text-anchor="middle" x="923" y="-426.3" font-family="Helvetica,sans-Serif" font-size="14.00">Long&#45;lived runtime surfaces</text>
</g>
<g id="clust3" class="cluster">
<title>cluster_tasks</title>
<path fill="#fbf6ee" stroke="#c39b5b" d="M20,-253.5C20,-253.5 1291,-253.5 1291,-253.5 1297,-253.5 1303,-259.5 1303,-265.5 1303,-265.5 1303,-333.5 1303,-333.5 1303,-339.5 1297,-345.5 1291,-345.5 1291,-345.5 20,-345.5 20,-345.5 14,-345.5 8,-339.5 8,-333.5 8,-333.5 8,-265.5 8,-265.5 8,-259.5 14,-253.5 20,-253.5"/>
<text text-anchor="middle" x="655.5" y="-330.3" font-family="Helvetica,sans-Serif" font-size="14.00">Async tasks / loops (tokio)</text>
</g>
<g id="clust4" class="cluster">
<title>cluster_channels</title>
<path fill="#f8eef4" stroke="#a76a92" d="M204,-92C204,-92 1440,-92 1440,-92 1446,-92 1452,-98 1452,-104 1452,-104 1452,-212.5 1452,-212.5 1452,-218.5 1446,-224.5 1440,-224.5 1440,-224.5 204,-224.5 204,-224.5 198,-224.5 192,-218.5 192,-212.5 192,-212.5 192,-104 192,-104 192,-98 198,-92 204,-92"/>
<text text-anchor="middle" x="822" y="-209.3" font-family="Helvetica,sans-Serif" font-size="14.00">Wire channels</text>
</g>
<!-- simard -->
<g id="node1" class="node">
<title>simard</title>
<path fill="#dbe9f8" stroke="#33628f" d="M1002.5,-591.5C1002.5,-591.5 843.5,-591.5 843.5,-591.5 837.5,-591.5 831.5,-585.5 831.5,-579.5 831.5,-579.5 831.5,-565.5 831.5,-565.5 831.5,-559.5 837.5,-553.5 843.5,-553.5 843.5,-553.5 1002.5,-553.5 1002.5,-553.5 1008.5,-553.5 1014.5,-559.5 1014.5,-565.5 1014.5,-565.5 1014.5,-579.5 1014.5,-579.5 1014.5,-585.5 1008.5,-591.5 1002.5,-591.5"/>
<text text-anchor="middle" x="923" y="-576.3" font-family="Helvetica,sans-Serif" font-size="14.00">simard (default&#45;run bin)</text>
<text text-anchor="middle" x="923" y="-561.3" font-family="Helvetica,sans-Serif" font-size="14.00">src/main.rs:8</text>
</g>
<!-- dispatch -->
<g id="node2" class="node">
<title>dispatch</title>
<path fill="#eef4fb" stroke="#33628f" d="M1014.5,-506.5C1014.5,-506.5 831.5,-506.5 831.5,-506.5 825.5,-506.5 819.5,-500.5 819.5,-494.5 819.5,-494.5 819.5,-480.5 819.5,-480.5 819.5,-474.5 825.5,-468.5 831.5,-468.5 831.5,-468.5 1014.5,-468.5 1014.5,-468.5 1020.5,-468.5 1026.5,-474.5 1026.5,-480.5 1026.5,-480.5 1026.5,-494.5 1026.5,-494.5 1026.5,-500.5 1020.5,-506.5 1014.5,-506.5"/>
<text text-anchor="middle" x="923" y="-491.3" font-family="Helvetica,sans-Serif" font-size="14.00">dispatch_operator_cli()</text>
<text text-anchor="middle" x="923" y="-476.3" font-family="Helvetica,sans-Serif" font-size="14.00">src/operator_cli/mod.rs:219</text>
</g>
<!-- simard&#45;&gt;dispatch -->
<g id="edge1" class="edge">
<title>simard&#45;&gt;dispatch</title>
<path fill="none" stroke="#555555" d="M923,-553.49C923,-542.8 923,-529 923,-516.87"/>
<polygon fill="#555555" stroke="#555555" points="926.5,-516.76 923,-506.76 919.5,-516.76 926.5,-516.76"/>
<text text-anchor="middle" x="934" y="-527.5" font-family="Helvetica,sans-Serif" font-size="10.00">args</text>
</g>
<!-- dashboard -->
<g id="node3" class="node">
<title>dashboard</title>
<path fill="#eef4fb" stroke="#33628f" d="M599,-410.5C599,-410.5 441,-410.5 441,-410.5 435,-410.5 429,-404.5 429,-398.5 429,-398.5 429,-384.5 429,-384.5 429,-378.5 435,-372.5 441,-372.5 441,-372.5 599,-372.5 599,-372.5 605,-372.5 611,-378.5 611,-384.5 611,-384.5 611,-398.5 611,-398.5 611,-404.5 605,-410.5 599,-410.5"/>
<text text-anchor="middle" x="520" y="-395.3" font-family="Helvetica,sans-Serif" font-size="14.00">dashboard serve</text>
<text text-anchor="middle" x="520" y="-380.3" font-family="Helvetica,sans-Serif" font-size="14.00">operator_cli/mod.rs:250</text>
</g>
<!-- dispatch&#45;&gt;dashboard -->
<g id="edge2" class="edge">
<title>dispatch&#45;&gt;dashboard</title>
<path fill="none" stroke="#555555" d="M819.2,-479.05C759.86,-472.83 684.62,-461.6 620,-441.5 599.25,-435.05 577.44,-424.81 559.51,-415.36"/>
<polygon fill="#555555" stroke="#555555" points="560.97,-412.18 550.5,-410.52 557.65,-418.34 560.97,-412.18"/>
</g>
<!-- ooda -->
<g id="node4" class="node">
<title>ooda</title>
<path fill="#eef4fb" stroke="#33628f" d="M799,-410.5C799,-410.5 641,-410.5 641,-410.5 635,-410.5 629,-404.5 629,-398.5 629,-398.5 629,-384.5 629,-384.5 629,-378.5 635,-372.5 641,-372.5 641,-372.5 799,-372.5 799,-372.5 805,-372.5 811,-378.5 811,-384.5 811,-384.5 811,-398.5 811,-398.5 811,-404.5 805,-410.5 799,-410.5"/>
<text text-anchor="middle" x="720" y="-395.3" font-family="Helvetica,sans-Serif" font-size="14.00">ooda run</text>
<text text-anchor="middle" x="720" y="-380.3" font-family="Helvetica,sans-Serif" font-size="14.00">operator_cli/mod.rs:249</text>
</g>
<!-- dispatch&#45;&gt;ooda -->
<g id="edge3" class="edge">
<title>dispatch&#45;&gt;ooda</title>
<path fill="none" stroke="#555555" d="M880.47,-468.41C861.83,-460.36 839.74,-450.64 820,-441.5 801.94,-433.14 782.24,-423.58 765.13,-415.13"/>
<polygon fill="#555555" stroke="#555555" points="766.44,-411.87 755.92,-410.57 763.33,-418.15 766.44,-411.87"/>
</g>
<!-- memcmd -->
<g id="node5" class="node">
<title>memcmd</title>
<path fill="#eef4fb" stroke="#33628f" d="M1205,-410.5C1205,-410.5 1047,-410.5 1047,-410.5 1041,-410.5 1035,-404.5 1035,-398.5 1035,-398.5 1035,-384.5 1035,-384.5 1035,-378.5 1041,-372.5 1047,-372.5 1047,-372.5 1205,-372.5 1205,-372.5 1211,-372.5 1217,-378.5 1217,-384.5 1217,-384.5 1217,-398.5 1217,-398.5 1217,-404.5 1211,-410.5 1205,-410.5"/>
<text text-anchor="middle" x="1126" y="-395.3" font-family="Helvetica,sans-Serif" font-size="14.00">memory stats|dump</text>
<text text-anchor="middle" x="1126" y="-380.3" font-family="Helvetica,sans-Serif" font-size="14.00">operator_cli/mod.rs:252</text>
</g>
<!-- dispatch&#45;&gt;memcmd -->
<g id="edge4" class="edge">
<title>dispatch&#45;&gt;memcmd</title>
<path fill="none" stroke="#555555" d="M965.53,-468.41C984.17,-460.36 1006.26,-450.64 1026,-441.5 1044.06,-433.14 1063.76,-423.58 1080.87,-415.13"/>
<polygon fill="#555555" stroke="#555555" points="1082.67,-418.15 1090.08,-410.57 1079.56,-411.87 1082.67,-418.15"/>
</g>
<!-- spawncmd -->
<g id="node6" class="node">
<title>spawncmd</title>
<path fill="#eef4fb" stroke="#33628f" d="M1005,-410.5C1005,-410.5 841,-410.5 841,-410.5 835,-410.5 829,-404.5 829,-398.5 829,-398.5 829,-384.5 829,-384.5 829,-378.5 835,-372.5 841,-372.5 841,-372.5 1005,-372.5 1005,-372.5 1011,-372.5 1017,-378.5 1017,-384.5 1017,-384.5 1017,-398.5 1017,-398.5 1017,-404.5 1011,-410.5 1005,-410.5"/>
<text text-anchor="middle" x="923" y="-395.3" font-family="Helvetica,sans-Serif" font-size="14.00">spawn &lt;agent&gt; &lt;goal&gt;</text>
<text text-anchor="middle" x="923" y="-380.3" font-family="Helvetica,sans-Serif" font-size="14.00">operator_cli/mod.rs:254</text>
</g>
<!-- dispatch&#45;&gt;spawncmd -->
<g id="edge5" class="edge">
<title>dispatch&#45;&gt;spawncmd</title>
<path fill="none" stroke="#555555" d="M923,-468.38C923,-454.85 923,-436.12 923,-420.65"/>
<polygon fill="#555555" stroke="#555555" points="926.5,-420.57 923,-410.57 919.5,-420.57 926.5,-420.57"/>
</g>
<!-- signalcmd -->
<g id="node7" class="node">
<title>signalcmd</title>
<path fill="#eef4fb" stroke="#33628f" d="M1405,-410.5C1405,-410.5 1247,-410.5 1247,-410.5 1241,-410.5 1235,-404.5 1235,-398.5 1235,-398.5 1235,-384.5 1235,-384.5 1235,-378.5 1241,-372.5 1247,-372.5 1247,-372.5 1405,-372.5 1405,-372.5 1411,-372.5 1417,-378.5 1417,-384.5 1417,-384.5 1417,-398.5 1417,-398.5 1417,-404.5 1411,-410.5 1405,-410.5"/>
<text text-anchor="middle" x="1326" y="-395.3" font-family="Helvetica,sans-Serif" font-size="14.00">signal run</text>
<text text-anchor="middle" x="1326" y="-380.3" font-family="Helvetica,sans-Serif" font-size="14.00">operator_cli/mod.rs:251</text>
</g>
<!-- dispatch&#45;&gt;signalcmd -->
<g id="edge6" class="edge">
<title>dispatch&#45;&gt;signalcmd</title>
<path fill="none" stroke="#555555" d="M1026.8,-479.05C1086.14,-472.83 1161.38,-461.6 1226,-441.5 1246.75,-435.05 1268.56,-424.81 1286.49,-415.36"/>
<polygon fill="#555555" stroke="#555555" points="1288.35,-418.34 1295.5,-410.52 1285.03,-412.18 1288.35,-418.34"/>
</g>
<!-- dash_task -->
<g id="node8" class="node">
<title>dash_task</title>
<path fill="#eef4fb" stroke="#33628f" d="M241.5,-314.5C241.5,-314.5 28.5,-314.5 28.5,-314.5 22.5,-314.5 16.5,-308.5 16.5,-302.5 16.5,-302.5 16.5,-273.5 16.5,-273.5 16.5,-267.5 22.5,-261.5 28.5,-261.5 28.5,-261.5 241.5,-261.5 241.5,-261.5 247.5,-261.5 253.5,-267.5 253.5,-273.5 253.5,-273.5 253.5,-302.5 253.5,-302.5 253.5,-308.5 247.5,-314.5 241.5,-314.5"/>
<text text-anchor="middle" x="135" y="-299.3" font-family="Helvetica,sans-Serif" font-size="14.00">spawn_dashboard_task(rt, port)</text>
<text text-anchor="middle" x="135" y="-284.3" font-family="Helvetica,sans-Serif" font-size="14.00">axum::serve @ 0.0.0.0:port</text>
<text text-anchor="middle" x="135" y="-269.3" font-family="Helvetica,sans-Serif" font-size="14.00">dashboard/mod.rs:244&#45;260</text>
</g>
<!-- dashboard&#45;&gt;dash_task -->
<g id="edge7" class="edge">
<title>dashboard&#45;&gt;dash_task</title>
<path fill="none" stroke="#555555" d="M428.88,-380.17C378.9,-373.13 316.26,-362.03 262,-345.5 239.18,-338.55 215.04,-328.54 194.01,-318.87"/>
<polygon fill="#555555" stroke="#555555" points="195.43,-315.67 184.89,-314.61 192.47,-322.01 195.43,-315.67"/>
</g>
<!-- ooda_cycle -->
<g id="node9" class="node">
<title>ooda_cycle</title>
<path fill="#eef4fb" stroke="#33628f" d="M552.5,-314.5C552.5,-314.5 283.5,-314.5 283.5,-314.5 277.5,-314.5 271.5,-308.5 271.5,-302.5 271.5,-302.5 271.5,-273.5 271.5,-273.5 271.5,-267.5 277.5,-261.5 283.5,-261.5 283.5,-261.5 552.5,-261.5 552.5,-261.5 558.5,-261.5 564.5,-267.5 564.5,-273.5 564.5,-273.5 564.5,-302.5 564.5,-302.5 564.5,-308.5 558.5,-314.5 552.5,-314.5"/>
<text text-anchor="middle" x="418" y="-299.3" font-family="Helvetica,sans-Serif" font-size="14.00">run_ooda_cycle()</text>
<text text-anchor="middle" x="418" y="-284.3" font-family="Helvetica,sans-Serif" font-size="14.00">observe&#45;&gt;orient&#45;&gt;decide&#45;&gt;act&#45;&gt;review</text>
<text text-anchor="middle" x="418" y="-269.3" font-family="Helvetica,sans-Serif" font-size="14.00">ooda_loop/cycle.rs:28</text>
</g>
<!-- ooda&#45;&gt;ooda_cycle -->
<g id="edge8" class="edge">
<title>ooda&#45;&gt;ooda_cycle</title>
<path fill="none" stroke="#555555" d="M659.05,-372.44C632.79,-364.47 601.79,-354.81 574,-345.5 548.56,-336.98 520.98,-327.18 496.19,-318.16"/>
<polygon fill="#555555" stroke="#555555" points="497.07,-314.75 486.48,-314.61 494.67,-321.33 497.07,-314.75"/>
</g>
<!-- mem_accept -->
<g id="node10" class="node">
<title>mem_accept</title>
<path fill="#eef4fb" stroke="#33628f" d="M1282.5,-314.5C1282.5,-314.5 1089.5,-314.5 1089.5,-314.5 1083.5,-314.5 1077.5,-308.5 1077.5,-302.5 1077.5,-302.5 1077.5,-273.5 1077.5,-273.5 1077.5,-267.5 1083.5,-261.5 1089.5,-261.5 1089.5,-261.5 1282.5,-261.5 1282.5,-261.5 1288.5,-261.5 1294.5,-267.5 1294.5,-273.5 1294.5,-273.5 1294.5,-302.5 1294.5,-302.5 1294.5,-308.5 1288.5,-314.5 1282.5,-314.5"/>
<text text-anchor="middle" x="1186" y="-299.3" font-family="Helvetica,sans-Serif" font-size="14.00">memory_ipc::spawn_server()</text>
<text text-anchor="middle" x="1186" y="-284.3" font-family="Helvetica,sans-Serif" font-size="14.00">UnixListener accept loop</text>
<text text-anchor="middle" x="1186" y="-269.3" font-family="Helvetica,sans-Serif" font-size="14.00">memory_ipc/server.rs:29</text>
</g>
<!-- memcmd&#45;&gt;mem_accept -->
<g id="edge9" class="edge">
<title>memcmd&#45;&gt;mem_accept</title>
<path fill="none" stroke="#555555" d="M1136.73,-372.35C1144.75,-358.79 1155.95,-339.83 1165.65,-323.42"/>
<polygon fill="#555555" stroke="#555555" points="1168.78,-325 1170.86,-314.61 1162.76,-321.44 1168.78,-325"/>
</g>
<!-- mem_sock -->
<g id="node13" class="node">
<title>mem_sock</title>
<path fill="#f3dcec" stroke="#33628f" d="M1443.5,-185.21C1443.5,-189.92 1377.39,-193.75 1296,-193.75 1214.61,-193.75 1148.5,-189.92 1148.5,-185.21 1148.5,-185.21 1148.5,-108.29 1148.5,-108.29 1148.5,-103.58 1214.61,-99.75 1296,-99.75 1377.39,-99.75 1443.5,-103.58 1443.5,-108.29 1443.5,-108.29 1443.5,-185.21 1443.5,-185.21"/>
<path fill="none" stroke="#33628f" d="M1443.5,-185.21C1443.5,-180.49 1377.39,-176.66 1296,-176.66 1214.61,-176.66 1148.5,-180.49 1148.5,-185.21"/>
<text text-anchor="middle" x="1296" y="-165.55" font-family="Helvetica,sans-Serif" font-size="14.00">Memory IPC</text>
<text text-anchor="middle" x="1296" y="-150.55" font-family="Helvetica,sans-Serif" font-size="14.00">UnixListener {state_root}/memory.sock</text>
<text text-anchor="middle" x="1296" y="-135.55" font-family="Helvetica,sans-Serif" font-size="14.00">framed JSON MemoryRequest/Response</text>
<text text-anchor="middle" x="1296" y="-120.55" font-family="Helvetica,sans-Serif" font-size="14.00">memory_ipc/mod.rs:158,300</text>
</g>
<!-- memcmd&#45;&gt;mem_sock -->
<g id="edge13" class="edge">
<title>memcmd&#45;&gt;mem_sock</title>
<path fill="none" stroke="#555555" stroke-dasharray="5,2" d="M1194.53,-372.45C1205.06,-369.74 1215.81,-367.02 1226,-364.5 1261.9,-355.62 1284.03,-374.48 1307,-345.5 1338.31,-306 1330.16,-246.9 1317.47,-203.6"/>
<polygon fill="#555555" stroke="#555555" points="1320.73,-202.3 1314.44,-193.78 1314.04,-204.37 1320.73,-202.3"/>
<text text-anchor="middle" x="1378" y="-285.5" font-family="Helvetica,sans-Serif" font-size="10.00">client (framed JSON)</text>
</g>
<!-- supervisor -->
<g id="node11" class="node">
<title>supervisor</title>
<path fill="#eef4fb" stroke="#33628f" d="M1047,-314.5C1047,-314.5 799,-314.5 799,-314.5 793,-314.5 787,-308.5 787,-302.5 787,-302.5 787,-273.5 787,-273.5 787,-267.5 793,-261.5 799,-261.5 799,-261.5 1047,-261.5 1047,-261.5 1053,-261.5 1059,-267.5 1059,-273.5 1059,-273.5 1059,-302.5 1059,-302.5 1059,-308.5 1053,-314.5 1047,-314.5"/>
<text text-anchor="middle" x="923" y="-299.3" font-family="Helvetica,sans-Serif" font-size="14.00">agent_supervisor</text>
<text text-anchor="middle" x="923" y="-284.3" font-family="Helvetica,sans-Serif" font-size="14.00">child processes; hive&#45;fact heartbeats</text>
<text text-anchor="middle" x="923" y="-269.3" font-family="Helvetica,sans-Serif" font-size="14.00">agent_supervisor/mod.rs:1&#45;9</text>
</g>
<!-- spawncmd&#45;&gt;supervisor -->
<g id="edge10" class="edge">
<title>spawncmd&#45;&gt;supervisor</title>
<path fill="none" stroke="#555555" d="M923,-372.35C923,-359.16 923,-340.88 923,-324.79"/>
<polygon fill="#555555" stroke="#555555" points="926.5,-324.61 923,-314.61 919.5,-324.61 926.5,-324.61"/>
</g>
<!-- rpc_ch -->
<g id="node15" class="node">
<title>rpc_ch</title>
<path fill="#f3dcec" stroke="#33628f" d="M526,-185.21C526,-189.92 452.94,-193.75 363,-193.75 273.06,-193.75 200,-189.92 200,-185.21 200,-185.21 200,-108.29 200,-108.29 200,-103.58 273.06,-99.75 363,-99.75 452.94,-99.75 526,-103.58 526,-108.29 526,-108.29 526,-185.21 526,-185.21"/>
<path fill="none" stroke="#33628f" d="M526,-185.21C526,-180.49 452.94,-176.66 363,-176.66 273.06,-176.66 200,-180.49 200,-185.21"/>
<text text-anchor="middle" x="363" y="-165.55" font-family="Helvetica,sans-Serif" font-size="14.00">RPC (line&#45;delimited JSON)</text>
<text text-anchor="middle" x="363" y="-150.55" font-family="Helvetica,sans-Serif" font-size="14.00">RpcRequest/RpcResponse</text>
<text text-anchor="middle" x="363" y="-135.55" font-family="Helvetica,sans-Serif" font-size="14.00">launch_all_clients()</text>
<text text-anchor="middle" x="363" y="-120.55" font-family="Helvetica,sans-Serif" font-size="14.00">rpc.rs:14,26; rpc_subprocess_launcher.rs:64</text>
</g>
<!-- ooda_cycle&#45;&gt;rpc_ch -->
<g id="edge16" class="edge">
<title>ooda_cycle&#45;&gt;rpc_ch</title>
<path fill="none" stroke="#555555" d="M407.91,-261.46C401.46,-245.12 392.84,-223.29 384.87,-203.12"/>
<polygon fill="#555555" stroke="#555555" points="388.07,-201.71 381.15,-193.69 381.56,-204.28 388.07,-201.71"/>
<text text-anchor="middle" x="418.5" y="-235.5" font-family="Helvetica,sans-Serif" font-size="10.00">request</text>
</g>
<!-- hive_bus -->
<g id="node16" class="node">
<title>hive_bus</title>
<path fill="#f3dcec" stroke="#33628f" d="M807.5,-176.51C807.5,-180.16 748.56,-183.13 676,-183.13 603.44,-183.13 544.5,-180.16 544.5,-176.51 544.5,-176.51 544.5,-116.99 544.5,-116.99 544.5,-113.34 603.44,-110.37 676,-110.37 748.56,-110.37 807.5,-113.34 807.5,-116.99 807.5,-116.99 807.5,-176.51 807.5,-176.51"/>
<path fill="none" stroke="#33628f" d="M807.5,-176.51C807.5,-172.86 748.56,-169.9 676,-169.9 603.44,-169.9 544.5,-172.86 544.5,-176.51"/>
<text text-anchor="middle" x="676" y="-158.05" font-family="Helvetica,sans-Serif" font-size="14.00">HiveEventBus</text>
<text text-anchor="middle" x="676" y="-143.05" font-family="Helvetica,sans-Serif" font-size="14.00">tokio::broadcast fan&#45;out (cap 1024)</text>
<text text-anchor="middle" x="676" y="-128.05" font-family="Helvetica,sans-Serif" font-size="14.00">hive_event_bus/mod.rs:229&#45;244</text>
</g>
<!-- ooda_cycle&#45;&gt;hive_bus -->
<g id="edge19" class="edge">
<title>ooda_cycle&#45;&gt;hive_bus</title>
<path fill="none" stroke="#555555" d="M466.15,-261.39C487.29,-250.11 512.4,-236.69 535,-224.5 556.88,-212.7 580.64,-199.8 602.3,-188.01"/>
<polygon fill="#555555" stroke="#555555" points="604.02,-191.06 611.13,-183.2 600.67,-184.91 604.02,-191.06"/>
<text text-anchor="middle" x="537" y="-235.5" font-family="Helvetica,sans-Serif" font-size="10.00">publish</text>
</g>
<!-- mem_accept&#45;&gt;mem_sock -->
<g id="edge11" class="edge">
<title>mem_accept&#45;&gt;mem_sock</title>
<path fill="none" stroke="#555555" d="M1206.18,-261.46C1219.37,-244.75 1237.11,-222.3 1253.34,-201.75"/>
<polygon fill="#555555" stroke="#555555" points="1256.26,-203.71 1259.71,-193.69 1250.76,-199.37 1256.26,-203.71"/>
<text text-anchor="middle" x="1241" y="-235.5" font-family="Helvetica,sans-Serif" font-size="10.00">serve</text>
</g>
<!-- rt_ipc -->
<g id="node14" class="node">
<title>rt_ipc</title>
<path fill="#f3dcec" stroke="#33628f" d="M1130.5,-185.21C1130.5,-189.92 1062.15,-193.75 978,-193.75 893.85,-193.75 825.5,-189.92 825.5,-185.21 825.5,-185.21 825.5,-108.29 825.5,-108.29 825.5,-103.58 893.85,-99.75 978,-99.75 1062.15,-99.75 1130.5,-103.58 1130.5,-108.29 1130.5,-108.29 1130.5,-185.21 1130.5,-185.21"/>
<path fill="none" stroke="#33628f" d="M1130.5,-185.21C1130.5,-180.49 1062.15,-176.66 978,-176.66 893.85,-176.66 825.5,-180.49 825.5,-185.21"/>
<text text-anchor="middle" x="978" y="-165.55" font-family="Helvetica,sans-Serif" font-size="14.00">Runtime IPC</text>
<text text-anchor="middle" x="978" y="-150.55" font-family="Helvetica,sans-Serif" font-size="14.00">newline&#45;JSON IpcMessage over stdio/unix</text>
<text text-anchor="middle" x="978" y="-135.55" font-family="Helvetica,sans-Serif" font-size="14.00">spawn_subprocess()</text>
<text text-anchor="middle" x="978" y="-120.55" font-family="Helvetica,sans-Serif" font-size="14.00">runtime_ipc/mod.rs:20,177</text>
</g>
<!-- supervisor&#45;&gt;rt_ipc -->
<g id="edge14" class="edge">
<title>supervisor&#45;&gt;rt_ipc</title>
<path fill="none" stroke="#555555" d="M933.09,-261.46C939.54,-245.12 948.16,-223.29 956.13,-203.12"/>
<polygon fill="#555555" stroke="#555555" points="959.44,-204.28 959.85,-193.69 952.93,-201.71 959.44,-204.28"/>
<text text-anchor="middle" x="959" y="-235.5" font-family="Helvetica,sans-Serif" font-size="10.00">spawn</text>
</g>
<!-- supervisor&#45;&gt;hive_bus -->
<g id="edge18" class="edge">
<title>supervisor&#45;&gt;hive_bus</title>
<path fill="none" stroke="#555555" d="M877.7,-261.46C841.42,-241.01 789.85,-211.94 747.94,-188.31"/>
<polygon fill="#555555" stroke="#555555" points="749.58,-185.22 739.15,-183.35 746.14,-191.31 749.58,-185.22"/>
<text text-anchor="middle" x="874.5" y="-235.5" font-family="Helvetica,sans-Serif" font-size="10.00">publish facts</text>
</g>
<!-- overseer -->
<g id="node12" class="node">
<title>overseer</title>
<path fill="#f0f0f0" stroke="#33628f" stroke-dasharray="5,2" d="M757,-314.5C757,-314.5 595,-314.5 595,-314.5 589,-314.5 583,-308.5 583,-302.5 583,-302.5 583,-273.5 583,-273.5 583,-267.5 589,-261.5 595,-261.5 595,-261.5 757,-261.5 757,-261.5 763,-261.5 769,-267.5 769,-273.5 769,-273.5 769,-302.5 769,-302.5 769,-308.5 763,-314.5 757,-314.5"/>
<text text-anchor="middle" x="676" y="-299.3" font-family="Helvetica,sans-Serif" font-size="14.00">overseer (planned)</text>
<text text-anchor="middle" x="676" y="-284.3" font-family="Helvetica,sans-Serif" font-size="14.00">design sketch, not wired</text>
<text text-anchor="middle" x="676" y="-269.3" font-family="Helvetica,sans-Serif" font-size="14.00">overseer/mod.rs:1&#45;18</text>
</g>
<!-- overseer&#45;&gt;hive_bus -->
<g id="edge21" class="edge">
<title>overseer&#45;&gt;hive_bus</title>
<path fill="none" stroke="#999999" stroke-dasharray="5,2" d="M676,-261.46C676,-242.46 676,-216.03 676,-193.43"/>
<polygon fill="#999999" stroke="#999999" points="679.5,-193.35 676,-183.35 672.5,-193.35 679.5,-193.35"/>
<text text-anchor="middle" x="696" y="-235.5" font-family="Helvetica,sans-Serif" font-size="10.00">planned</text>
</g>
<!-- rcm -->
<g id="node17" class="node">
<title>rcm</title>
<path fill="#e7e7f6" stroke="#33628f" d="M1387,-45.5C1387,-45.5 1205,-45.5 1205,-45.5 1199,-45.5 1193,-39.5 1193,-33.5 1193,-33.5 1193,-19.5 1193,-19.5 1193,-13.5 1199,-7.5 1205,-7.5 1205,-7.5 1387,-7.5 1387,-7.5 1393,-7.5 1399,-13.5 1399,-19.5 1399,-19.5 1399,-33.5 1399,-33.5 1399,-39.5 1393,-45.5 1387,-45.5"/>
<text text-anchor="middle" x="1296" y="-30.3" font-family="Helvetica,sans-Serif" font-size="14.00">RemoteCognitiveMemory</text>
<text text-anchor="middle" x="1296" y="-15.3" font-family="Helvetica,sans-Serif" font-size="14.00">cognitive&#45;memory backend</text>
</g>
<!-- mem_sock&#45;&gt;rcm -->
<g id="edge12" class="edge">
<title>mem_sock&#45;&gt;rcm</title>
<path fill="none" stroke="#555555" d="M1296,-99.69C1296,-84.9 1296,-68.96 1296,-55.83"/>
<polygon fill="#555555" stroke="#555555" points="1299.5,-55.54 1296,-45.54 1292.5,-55.54 1299.5,-55.54"/>
<text text-anchor="middle" x="1317" y="-74" font-family="Helvetica,sans-Serif" font-size="10.00">dispatch</text>
</g>
<!-- child_proc -->
<g id="node18" class="node">
<title>child_proc</title>
<path fill="#e7e7f6" stroke="#33628f" d="M1049.5,-45.5C1049.5,-45.5 906.5,-45.5 906.5,-45.5 900.5,-45.5 894.5,-39.5 894.5,-33.5 894.5,-33.5 894.5,-19.5 894.5,-19.5 894.5,-13.5 900.5,-7.5 906.5,-7.5 906.5,-7.5 1049.5,-7.5 1049.5,-7.5 1055.5,-7.5 1061.5,-13.5 1061.5,-19.5 1061.5,-19.5 1061.5,-33.5 1061.5,-33.5 1061.5,-39.5 1055.5,-45.5 1049.5,-45.5"/>
<text text-anchor="middle" x="978" y="-30.3" font-family="Helvetica,sans-Serif" font-size="14.00">subprocess child</text>
<text text-anchor="middle" x="978" y="-15.3" font-family="Helvetica,sans-Serif" font-size="14.00">(&#45;&#45;ipc&#45;socket &lt;path&gt;)</text>
</g>
<!-- rt_ipc&#45;&gt;child_proc -->
<g id="edge15" class="edge">
<title>rt_ipc&#45;&gt;child_proc</title>
<path fill="none" stroke="#555555" d="M978,-99.69C978,-84.9 978,-68.96 978,-55.83"/>
<polygon fill="#555555" stroke="#555555" points="981.5,-55.54 978,-45.54 974.5,-55.54 981.5,-55.54"/>
<text text-anchor="middle" x="998" y="-74" font-family="Helvetica,sans-Serif" font-size="10.00">accept()</text>
</g>
<!-- rpc_srv -->
<g id="node19" class="node">
<title>rpc_srv</title>
<path fill="#e7e7f6" stroke="#33628f" d="M484.5,-53C484.5,-53 241.5,-53 241.5,-53 235.5,-53 229.5,-47 229.5,-41 229.5,-41 229.5,-12 229.5,-12 229.5,-6 235.5,0 241.5,0 241.5,0 484.5,0 484.5,0 490.5,0 496.5,-6 496.5,-12 496.5,-12 496.5,-41 496.5,-41 496.5,-47 490.5,-53 484.5,-53"/>
<text text-anchor="middle" x="363" y="-37.8" font-family="Helvetica,sans-Serif" font-size="14.00">RPC servers</text>
<text text-anchor="middle" x="363" y="-22.8" font-family="Helvetica,sans-Serif" font-size="14.00">(knowledge / gym, native transport)</text>
<text text-anchor="middle" x="363" y="-7.8" font-family="Helvetica,sans-Serif" font-size="14.00">rpc_transport/native.rs:26</text>
</g>
<!-- rpc_ch&#45;&gt;rpc_srv -->
<g id="edge17" class="edge">
<title>rpc_ch&#45;&gt;rpc_srv</title>
<path fill="none" stroke="#555555" d="M363,-99.69C363,-87.58 363,-74.69 363,-63.21"/>
<polygon fill="#555555" stroke="#555555" points="366.5,-63.13 363,-53.13 359.5,-63.13 366.5,-63.13"/>
<text text-anchor="middle" x="396.5" y="-74" font-family="Helvetica,sans-Serif" font-size="10.00">one JSON/line</text>
</g>
<!-- subscribers -->
<g id="node20" class="node">
<title>subscribers</title>
<path fill="#e7e7f6" stroke="#33628f" d="M784,-53C784,-53 568,-53 568,-53 562,-53 556,-47 556,-41 556,-41 556,-12 556,-12 556,-6 562,0 568,0 568,0 784,0 784,0 790,0 796,-6 796,-12 796,-12 796,-41 796,-41 796,-47 790,-53 784,-53"/>
<text text-anchor="middle" x="676" y="-37.8" font-family="Helvetica,sans-Serif" font-size="14.00">HiveEvent subscribers</text>
<text text-anchor="middle" x="676" y="-22.8" font-family="Helvetica,sans-Serif" font-size="14.00">subscribe()/publish()</text>
<text text-anchor="middle" x="676" y="-7.8" font-family="Helvetica,sans-Serif" font-size="14.00">hive_event_bus/mod.rs:275,284</text>
</g>
<!-- hive_bus&#45;&gt;subscribers -->
<g id="edge20" class="edge">
<title>hive_bus&#45;&gt;subscribers</title>
<path fill="none" stroke="#555555" d="M676,-110.27C676,-95.49 676,-78.35 676,-63.51"/>
<polygon fill="#555555" stroke="#555555" points="679.5,-63.18 676,-53.18 672.5,-63.18 679.5,-63.18"/>
<text text-anchor="middle" x="700.5" y="-74" font-family="Helvetica,sans-Serif" font-size="10.00">broadcast</text>
</g>
</g>
</svg>
