<?xml version="1.0" encoding="UTF-8" standalone="no"?>
<!DOCTYPE svg PUBLIC "-//W3C//DTD SVG 1.1//EN"
 "http://www.w3.org/Graphics/SVG/1.1/DTD/svg11.dtd">
<!-- Generated by graphviz version 2.42.4 (0)
 -->
<!-- Title: runtime_topology Pages: 1 -->
<svg width="1792pt" height="673pt"
 viewBox="0.00 0.00 1792.00 672.50" xmlns="http://www.w3.org/2000/svg" xmlns:xlink="http://www.w3.org/1999/xlink">
<g id="graph0" class="graph" transform="scale(1 1) rotate(0) translate(4 668.5)">
<title>runtime_topology</title>
<polygon fill="white" stroke="transparent" points="-4,4 -4,-668.5 1788,-668.5 1788,4 -4,4"/>
<text text-anchor="middle" x="892" y="-649.3" font-family="Helvetica,sans-Serif" font-size="14.00">Simard — Runtime Topology (processes, async tasks, IPC/RPC channels)</text>
<g id="clust1" class="cluster">
<title>cluster_entry</title>
<path fill="#f6f6f6" stroke="#999999" d="M813,-471.5C813,-471.5 1013,-471.5 1013,-471.5 1019,-471.5 1025,-477.5 1025,-483.5 1025,-483.5 1025,-621.5 1025,-621.5 1025,-627.5 1019,-633.5 1013,-633.5 1013,-633.5 813,-633.5 813,-633.5 807,-633.5 801,-627.5 801,-621.5 801,-621.5 801,-483.5 801,-483.5 801,-477.5 807,-471.5 813,-471.5"/>
<text text-anchor="middle" x="913" y="-618.3" font-family="Helvetica,sans-Serif" font-size="14.00">Entrypoint / dispatch</text>
</g>
<g id="clust2" class="cluster">
<title>cluster_surfaces</title>
<path fill="#f2f8f2" stroke="#7fa87f" d="M420,-375.5C420,-375.5 1400,-375.5 1400,-375.5 1406,-375.5 1412,-381.5 1412,-387.5 1412,-387.5 1412,-440.5 1412,-440.5 1412,-446.5 1406,-452.5 1400,-452.5 1400,-452.5 420,-452.5 420,-452.5 414,-452.5 408,-446.5 408,-440.5 408,-440.5 408,-387.5 408,-387.5 408,-381.5 414,-375.5 420,-375.5"/>
<text text-anchor="middle" x="910" y="-437.3" font-family="Helvetica,sans-Serif" font-size="14.00">Long&#45;lived runtime surfaces</text>
</g>
<g id="clust3" class="cluster">
<title>cluster_tasks</title>
<path fill="#fbf6ee" stroke="#c39b5b" d="M20,-264.5C20,-264.5 1291,-264.5 1291,-264.5 1297,-264.5 1303,-270.5 1303,-276.5 1303,-276.5 1303,-344.5 1303,-344.5 1303,-350.5 1297,-356.5 1291,-356.5 1291,-356.5 20,-356.5 20,-356.5 14,-356.5 8,-350.5 8,-344.5 8,-344.5 8,-276.5 8,-276.5 8,-270.5 14,-264.5 20,-264.5"/>
<text text-anchor="middle" x="655.5" y="-341.3" font-family="Helvetica,sans-Serif" font-size="14.00">Async tasks / loops (tokio)</text>
</g>
<g id="clust4" class="cluster">
<title>cluster_channels</title>
<path fill="#f8eef4" stroke="#a76a92" d="M527,-92C527,-92 1764,-92 1764,-92 1770,-92 1776,-98 1776,-104 1776,-104 1776,-212.5 1776,-212.5 1776,-218.5 1770,-224.5 1764,-224.5 1764,-224.5 527,-224.5 527,-224.5 521,-224.5 515,-218.5 515,-212.5 515,-212.5 515,-104 515,-104 515,-98 521,-92 527,-92"/>
<text text-anchor="middle" x="1145.5" y="-209.3" font-family="Helvetica,sans-Serif" font-size="14.00">Wire channels</text>
</g>
<!-- simard -->
<g id="node1" class="node">
<title>simard</title>
<path fill="#dbe9f8" stroke="#33628f" d="M992.5,-602.5C992.5,-602.5 833.5,-602.5 833.5,-602.5 827.5,-602.5 821.5,-596.5 821.5,-590.5 821.5,-590.5 821.5,-576.5 821.5,-576.5 821.5,-570.5 827.5,-564.5 833.5,-564.5 833.5,-564.5 992.5,-564.5 992.5,-564.5 998.5,-564.5 1004.5,-570.5 1004.5,-576.5 1004.5,-576.5 1004.5,-590.5 1004.5,-590.5 1004.5,-596.5 998.5,-602.5 992.5,-602.5"/>
<text text-anchor="middle" x="913" y="-587.3" font-family="Helvetica,sans-Serif" font-size="14.00">simard (default&#45;run bin)</text>
<text text-anchor="middle" x="913" y="-572.3" font-family="Helvetica,sans-Serif" font-size="14.00">src/main.rs:8</text>
</g>
<!-- dispatch -->
<g id="node2" class="node">
<title>dispatch</title>
<path fill="#eef4fb" stroke="#33628f" d="M1004.5,-517.5C1004.5,-517.5 821.5,-517.5 821.5,-517.5 815.5,-517.5 809.5,-511.5 809.5,-505.5 809.5,-505.5 809.5,-491.5 809.5,-491.5 809.5,-485.5 815.5,-479.5 821.5,-479.5 821.5,-479.5 1004.5,-479.5 1004.5,-479.5 1010.5,-479.5 1016.5,-485.5 1016.5,-491.5 1016.5,-491.5 1016.5,-505.5 1016.5,-505.5 1016.5,-511.5 1010.5,-517.5 1004.5,-517.5"/>
<text text-anchor="middle" x="913" y="-502.3" font-family="Helvetica,sans-Serif" font-size="14.00">dispatch_operator_cli()</text>
<text text-anchor="middle" x="913" y="-487.3" font-family="Helvetica,sans-Serif" font-size="14.00">src/operator_cli/mod.rs:219</text>
</g>
<!-- simard&#45;&gt;dispatch -->
<g id="edge1" class="edge">
<title>simard&#45;&gt;dispatch</title>
<path fill="none" stroke="#555555" d="M913,-564.49C913,-553.8 913,-540 913,-527.87"/>
<polygon fill="#555555" stroke="#555555" points="916.5,-527.76 913,-517.76 909.5,-527.76 916.5,-527.76"/>
<text text-anchor="middle" x="924" y="-538.5" font-family="Helvetica,sans-Serif" font-size="10.00">args</text>
</g>
<!-- dashboard -->
<g id="node3" class="node">
<title>dashboard</title>
<path fill="#eef4fb" stroke="#33628f" d="M586,-421.5C586,-421.5 428,-421.5 428,-421.5 422,-421.5 416,-415.5 416,-409.5 416,-409.5 416,-395.5 416,-395.5 416,-389.5 422,-383.5 428,-383.5 428,-383.5 586,-383.5 586,-383.5 592,-383.5 598,-389.5 598,-395.5 598,-395.5 598,-409.5 598,-409.5 598,-415.5 592,-421.5 586,-421.5"/>
<text text-anchor="middle" x="507" y="-406.3" font-family="Helvetica,sans-Serif" font-size="14.00">dashboard serve</text>
<text text-anchor="middle" x="507" y="-391.3" font-family="Helvetica,sans-Serif" font-size="14.00">operator_cli/mod.rs:250</text>
</g>
<!-- dispatch&#45;&gt;dashboard -->
<g id="edge2" class="edge">
<title>dispatch&#45;&gt;dashboard</title>
<path fill="none" stroke="#555555" d="M809.23,-490.27C749.15,-484.11 672.65,-472.86 607,-452.5 586.24,-446.06 564.44,-435.83 546.5,-426.38"/>
<polygon fill="#555555" stroke="#555555" points="547.97,-423.19 537.5,-421.53 544.65,-429.35 547.97,-423.19"/>
</g>
<!-- ooda -->
<g id="node4" class="node">
<title>ooda</title>
<path fill="#eef4fb" stroke="#33628f" d="M992,-421.5C992,-421.5 834,-421.5 834,-421.5 828,-421.5 822,-415.5 822,-409.5 822,-409.5 822,-395.5 822,-395.5 822,-389.5 828,-383.5 834,-383.5 834,-383.5 992,-383.5 992,-383.5 998,-383.5 1004,-389.5 1004,-395.5 1004,-395.5 1004,-409.5 1004,-409.5 1004,-415.5 998,-421.5 992,-421.5"/>
<text text-anchor="middle" x="913" y="-406.3" font-family="Helvetica,sans-Serif" font-size="14.00">ooda run</text>
<text text-anchor="middle" x="913" y="-391.3" font-family="Helvetica,sans-Serif" font-size="14.00">operator_cli/mod.rs:249</text>
</g>
<!-- dispatch&#45;&gt;ooda -->
<g id="edge3" class="edge">
<title>dispatch&#45;&gt;ooda</title>
<path fill="none" stroke="#555555" d="M913,-479.38C913,-465.85 913,-447.12 913,-431.65"/>
<polygon fill="#555555" stroke="#555555" points="916.5,-431.57 913,-421.57 909.5,-431.57 916.5,-431.57"/>
</g>
<!-- memcmd -->
<g id="node5" class="node">
<title>memcmd</title>
<path fill="#eef4fb" stroke="#33628f" d="M1192,-421.5C1192,-421.5 1034,-421.5 1034,-421.5 1028,-421.5 1022,-415.5 1022,-409.5 1022,-409.5 1022,-395.5 1022,-395.5 1022,-389.5 1028,-383.5 1034,-383.5 1034,-383.5 1192,-383.5 1192,-383.5 1198,-383.5 1204,-389.5 1204,-395.5 1204,-395.5 1204,-409.5 1204,-409.5 1204,-415.5 1198,-421.5 1192,-421.5"/>
<text text-anchor="middle" x="1113" y="-406.3" font-family="Helvetica,sans-Serif" font-size="14.00">memory stats|dump</text>
<text text-anchor="middle" x="1113" y="-391.3" font-family="Helvetica,sans-Serif" font-size="14.00">operator_cli/mod.rs:252</text>
</g>
<!-- dispatch&#45;&gt;memcmd -->
<g id="edge4" class="edge">
<title>dispatch&#45;&gt;memcmd</title>
<path fill="none" stroke="#555555" d="M954.01,-479.41C972.15,-471.31 993.7,-461.57 1013,-452.5 1030.86,-444.11 1050.38,-434.61 1067.4,-426.24"/>
<polygon fill="#555555" stroke="#555555" points="1069.15,-429.27 1076.57,-421.71 1066.05,-423 1069.15,-429.27"/>
</g>
<!-- spawncmd -->
<g id="node6" class="node">
<title>spawncmd</title>
<path fill="#eef4fb" stroke="#33628f" d="M792,-421.5C792,-421.5 628,-421.5 628,-421.5 622,-421.5 616,-415.5 616,-409.5 616,-409.5 616,-395.5 616,-395.5 616,-389.5 622,-383.5 628,-383.5 628,-383.5 792,-383.5 792,-383.5 798,-383.5 804,-389.5 804,-395.5 804,-395.5 804,-409.5 804,-409.5 804,-415.5 798,-421.5 792,-421.5"/>
<text text-anchor="middle" x="710" y="-406.3" font-family="Helvetica,sans-Serif" font-size="14.00">spawn &lt;agent&gt; &lt;goal&gt;</text>
<text text-anchor="middle" x="710" y="-391.3" font-family="Helvetica,sans-Serif" font-size="14.00">operator_cli/mod.rs:254</text>
</g>
<!-- dispatch&#45;&gt;spawncmd -->
<g id="edge5" class="edge">
<title>dispatch&#45;&gt;spawncmd</title>
<path fill="none" stroke="#555555" d="M872.04,-479.3C853.91,-471.19 832.35,-461.46 813,-452.5 794.65,-444.01 774.56,-434.5 757.03,-426.13"/>
<polygon fill="#555555" stroke="#555555" points="758.11,-422.77 747.58,-421.61 755.09,-429.08 758.11,-422.77"/>
</g>
<!-- signalcmd -->
<g id="node7" class="node">
<title>signalcmd</title>
<path fill="#eef4fb" stroke="#33628f" d="M1392,-421.5C1392,-421.5 1234,-421.5 1234,-421.5 1228,-421.5 1222,-415.5 1222,-409.5 1222,-409.5 1222,-395.5 1222,-395.5 1222,-389.5 1228,-383.5 1234,-383.5 1234,-383.5 1392,-383.5 1392,-383.5 1398,-383.5 1404,-389.5 1404,-395.5 1404,-395.5 1404,-409.5 1404,-409.5 1404,-415.5 1398,-421.5 1392,-421.5"/>
<text text-anchor="middle" x="1313" y="-406.3" font-family="Helvetica,sans-Serif" font-size="14.00">signal run</text>
<text text-anchor="middle" x="1313" y="-391.3" font-family="Helvetica,sans-Serif" font-size="14.00">operator_cli/mod.rs:251</text>
</g>
<!-- dispatch&#45;&gt;signalcmd -->
<g id="edge6" class="edge">
<title>dispatch&#45;&gt;signalcmd</title>
<path fill="none" stroke="#555555" d="M1016.81,-489.83C1075.4,-483.55 1149.4,-472.33 1213,-452.5 1233.75,-446.03 1255.55,-435.8 1273.49,-426.35"/>
<polygon fill="#555555" stroke="#555555" points="1275.34,-429.33 1282.49,-421.51 1272.03,-423.16 1275.34,-429.33"/>
</g>
<!-- dash_task -->
<g id="node8" class="node">
<title>dash_task</title>
<path fill="#eef4fb" stroke="#33628f" d="M241.5,-325.5C241.5,-325.5 28.5,-325.5 28.5,-325.5 22.5,-325.5 16.5,-319.5 16.5,-313.5 16.5,-313.5 16.5,-284.5 16.5,-284.5 16.5,-278.5 22.5,-272.5 28.5,-272.5 28.5,-272.5 241.5,-272.5 241.5,-272.5 247.5,-272.5 253.5,-278.5 253.5,-284.5 253.5,-284.5 253.5,-313.5 253.5,-313.5 253.5,-319.5 247.5,-325.5 241.5,-325.5"/>
<text text-anchor="middle" x="135" y="-310.3" font-family="Helvetica,sans-Serif" font-size="14.00">spawn_dashboard_task(rt, port)</text>
<text text-anchor="middle" x="135" y="-295.3" font-family="Helvetica,sans-Serif" font-size="14.00">axum::serve @ 0.0.0.0:port</text>
<text text-anchor="middle" x="135" y="-280.3" font-family="Helvetica,sans-Serif" font-size="14.00">dashboard/mod.rs:244&#45;260</text>
</g>
<!-- dashboard&#45;&gt;dash_task -->
<g id="edge7" class="edge">
<title>dashboard&#45;&gt;dash_task</title>
<path fill="none" stroke="#555555" d="M415.98,-389.88C369.57,-382.66 312.6,-371.79 263,-356.5 240.15,-349.46 215.95,-339.48 194.81,-329.86"/>
<polygon fill="#555555" stroke="#555555" points="196.19,-326.64 185.64,-325.62 193.26,-332.99 196.19,-326.64"/>
</g>
<!-- ooda_cycle -->
<g id="node9" class="node">
<title>ooda_cycle</title>
<path fill="#eef4fb" stroke="#33628f" d="M1047.5,-325.5C1047.5,-325.5 778.5,-325.5 778.5,-325.5 772.5,-325.5 766.5,-319.5 766.5,-313.5 766.5,-313.5 766.5,-284.5 766.5,-284.5 766.5,-278.5 772.5,-272.5 778.5,-272.5 778.5,-272.5 1047.5,-272.5 1047.5,-272.5 1053.5,-272.5 1059.5,-278.5 1059.5,-284.5 1059.5,-284.5 1059.5,-313.5 1059.5,-313.5 1059.5,-319.5 1053.5,-325.5 1047.5,-325.5"/>
<text text-anchor="middle" x="913" y="-310.3" font-family="Helvetica,sans-Serif" font-size="14.00">run_ooda_cycle()</text>
<text text-anchor="middle" x="913" y="-295.3" font-family="Helvetica,sans-Serif" font-size="14.00">observe&#45;&gt;orient&#45;&gt;decide&#45;&gt;act&#45;&gt;review</text>
<text text-anchor="middle" x="913" y="-280.3" font-family="Helvetica,sans-Serif" font-size="14.00">ooda_loop/cycle.rs:28</text>
</g>
<!-- ooda&#45;&gt;ooda_cycle -->
<g id="edge8" class="edge">
<title>ooda&#45;&gt;ooda_cycle</title>
<path fill="none" stroke="#555555" d="M913,-383.35C913,-370.16 913,-351.88 913,-335.79"/>
<polygon fill="#555555" stroke="#555555" points="916.5,-335.61 913,-325.61 909.5,-335.61 916.5,-335.61"/>
</g>
<!-- mem_accept -->
<g id="node10" class="node">
<title>mem_accept</title>
<path fill="#eef4fb" stroke="#33628f" d="M1282.5,-325.5C1282.5,-325.5 1089.5,-325.5 1089.5,-325.5 1083.5,-325.5 1077.5,-319.5 1077.5,-313.5 1077.5,-313.5 1077.5,-284.5 1077.5,-284.5 1077.5,-278.5 1083.5,-272.5 1089.5,-272.5 1089.5,-272.5 1282.5,-272.5 1282.5,-272.5 1288.5,-272.5 1294.5,-278.5 1294.5,-284.5 1294.5,-284.5 1294.5,-313.5 1294.5,-313.5 1294.5,-319.5 1288.5,-325.5 1282.5,-325.5"/>
<text text-anchor="middle" x="1186" y="-310.3" font-family="Helvetica,sans-Serif" font-size="14.00">memory_ipc::spawn_server()</text>
<text text-anchor="middle" x="1186" y="-295.3" font-family="Helvetica,sans-Serif" font-size="14.00">UnixListener accept loop</text>
<text text-anchor="middle" x="1186" y="-280.3" font-family="Helvetica,sans-Serif" font-size="14.00">memory_ipc/server.rs:29</text>
</g>
<!-- memcmd&#45;&gt;mem_accept -->
<g id="edge9" class="edge">
<title>memcmd&#45;&gt;mem_accept</title>
<path fill="none" stroke="#555555" d="M1126.05,-383.35C1135.9,-369.66 1149.7,-350.48 1161.57,-333.96"/>
<polygon fill="#555555" stroke="#555555" points="1164.58,-335.78 1167.58,-325.61 1158.9,-331.69 1164.58,-335.78"/>
</g>
<!-- mem_sock -->
<g id="node13" class="node">
<title>mem_sock</title>
<path fill="#f3dcec" stroke="#33628f" d="M1444.5,-185.21C1444.5,-189.92 1378.39,-193.75 1297,-193.75 1215.61,-193.75 1149.5,-189.92 1149.5,-185.21 1149.5,-185.21 1149.5,-108.29 1149.5,-108.29 1149.5,-103.58 1215.61,-99.75 1297,-99.75 1378.39,-99.75 1444.5,-103.58 1444.5,-108.29 1444.5,-108.29 1444.5,-185.21 1444.5,-185.21"/>
<path fill="none" stroke="#33628f" d="M1444.5,-185.21C1444.5,-180.49 1378.39,-176.66 1297,-176.66 1215.61,-176.66 1149.5,-180.49 1149.5,-185.21"/>
<text text-anchor="middle" x="1297" y="-165.55" font-family="Helvetica,sans-Serif" font-size="14.00">Memory IPC</text>
<text text-anchor="middle" x="1297" y="-150.55" font-family="Helvetica,sans-Serif" font-size="14.00">UnixListener {state_root}/memory.sock</text>
<text text-anchor="middle" x="1297" y="-135.55" font-family="Helvetica,sans-Serif" font-size="14.00">framed JSON MemoryRequest/Response</text>
<text text-anchor="middle" x="1297" y="-120.55" font-family="Helvetica,sans-Serif" font-size="14.00">memory_ipc/mod.rs:158,300</text>
</g>
<!-- memcmd&#45;&gt;mem_sock -->
<g id="edge13" class="edge">
<title>memcmd&#45;&gt;mem_sock</title>
<path fill="none" stroke="#555555" stroke-dasharray="5,2" d="M1180.38,-383.44C1191.26,-380.68 1202.43,-377.94 1213,-375.5 1254.53,-365.91 1280.01,-389.49 1307,-356.5 1341.64,-314.16 1332.01,-249.28 1318.24,-203.1"/>
<polygon fill="#555555" stroke="#555555" points="1321.57,-202.05 1315.25,-193.55 1314.89,-204.13 1321.57,-202.05"/>
<text text-anchor="middle" x="1380" y="-296.5" font-family="Helvetica,sans-Serif" font-size="10.00">client (framed JSON)</text>
</g>
<!-- supervisor -->
<g id="node11" class="node">
<title>supervisor</title>
<path fill="#eef4fb" stroke="#33628f" d="M532,-325.5C532,-325.5 284,-325.5 284,-325.5 278,-325.5 272,-319.5 272,-313.5 272,-313.5 272,-284.5 272,-284.5 272,-278.5 278,-272.5 284,-272.5 284,-272.5 532,-272.5 532,-272.5 538,-272.5 544,-278.5 544,-284.5 544,-284.5 544,-313.5 544,-313.5 544,-319.5 538,-325.5 532,-325.5"/>
<text text-anchor="middle" x="408" y="-310.3" font-family="Helvetica,sans-Serif" font-size="14.00">agent_supervisor</text>
<text text-anchor="middle" x="408" y="-295.3" font-family="Helvetica,sans-Serif" font-size="14.00">child processes; hive&#45;fact heartbeats</text>
<text text-anchor="middle" x="408" y="-280.3" font-family="Helvetica,sans-Serif" font-size="14.00">agent_supervisor/mod.rs:1&#45;9</text>
</g>
<!-- spawncmd&#45;&gt;supervisor -->
<g id="edge10" class="edge">
<title>spawncmd&#45;&gt;supervisor</title>
<path fill="none" stroke="#555555" d="M641.96,-383.48C614.19,-375.74 581.88,-366.24 553,-356.5 528.81,-348.34 502.73,-338.51 479.44,-329.35"/>
<polygon fill="#555555" stroke="#555555" points="480.57,-326.03 469.99,-325.61 478,-332.54 480.57,-326.03"/>
</g>
<!-- rpc_ch -->
<g id="node15" class="node">
<title>rpc_ch</title>
<path fill="#f3dcec" stroke="#33628f" d="M1131,-185.21C1131,-189.92 1057.94,-193.75 968,-193.75 878.06,-193.75 805,-189.92 805,-185.21 805,-185.21 805,-108.29 805,-108.29 805,-103.58 878.06,-99.75 968,-99.75 1057.94,-99.75 1131,-103.58 1131,-108.29 1131,-108.29 1131,-185.21 1131,-185.21"/>
<path fill="none" stroke="#33628f" d="M1131,-185.21C1131,-180.49 1057.94,-176.66 968,-176.66 878.06,-176.66 805,-180.49 805,-185.21"/>
<text text-anchor="middle" x="968" y="-165.55" font-family="Helvetica,sans-Serif" font-size="14.00">RPC (line&#45;delimited JSON)</text>
<text text-anchor="middle" x="968" y="-150.55" font-family="Helvetica,sans-Serif" font-size="14.00">RpcRequest/RpcResponse</text>
<text text-anchor="middle" x="968" y="-135.55" font-family="Helvetica,sans-Serif" font-size="14.00">launch_all_clients()</text>
<text text-anchor="middle" x="968" y="-120.55" font-family="Helvetica,sans-Serif" font-size="14.00">rpc.rs:14,26; rpc_subprocess_launcher.rs:64</text>
</g>
<!-- ooda_cycle&#45;&gt;rpc_ch -->
<g id="edge17" class="edge">
<title>ooda_cycle&#45;&gt;rpc_ch</title>
<path fill="none" stroke="#555555" d="M922.45,-272.17C929.39,-253.22 939.07,-226.77 947.73,-203.13"/>
<polygon fill="#555555" stroke="#555555" points="951.08,-204.14 951.23,-193.55 944.51,-201.74 951.08,-204.14"/>
<text text-anchor="middle" x="953.5" y="-241" font-family="Helvetica,sans-Serif" font-size="10.00">request</text>
</g>
<!-- hive_bus -->
<g id="node16" class="node">
<title>hive_bus</title>
<path fill="#f3dcec" stroke="#33628f" d="M786.5,-176.51C786.5,-180.16 727.56,-183.13 655,-183.13 582.44,-183.13 523.5,-180.16 523.5,-176.51 523.5,-176.51 523.5,-116.99 523.5,-116.99 523.5,-113.34 582.44,-110.37 655,-110.37 727.56,-110.37 786.5,-113.34 786.5,-116.99 786.5,-116.99 786.5,-176.51 786.5,-176.51"/>
<path fill="none" stroke="#33628f" d="M786.5,-176.51C786.5,-172.86 727.56,-169.9 655,-169.9 582.44,-169.9 523.5,-172.86 523.5,-176.51"/>
<text text-anchor="middle" x="655" y="-158.05" font-family="Helvetica,sans-Serif" font-size="14.00">HiveEventBus</text>
<text text-anchor="middle" x="655" y="-143.05" font-family="Helvetica,sans-Serif" font-size="14.00">tokio::broadcast fan&#45;out (cap 1024)</text>
<text text-anchor="middle" x="655" y="-128.05" font-family="Helvetica,sans-Serif" font-size="14.00">hive_event_bus/mod.rs:229&#45;244</text>
</g>
<!-- ooda_cycle&#45;&gt;hive_bus -->
<g id="edge20" class="edge">
<title>ooda_cycle&#45;&gt;hive_bus</title>
<path fill="none" stroke="#555555" d="M868.94,-272.34C829.33,-249.27 770.47,-215 724.51,-188.23"/>
<polygon fill="#555555" stroke="#555555" points="726.2,-185.16 715.8,-183.16 722.68,-191.21 726.2,-185.16"/>
<text text-anchor="middle" x="854" y="-241" font-family="Helvetica,sans-Serif" font-size="10.00">publish</text>
</g>
<!-- mem_accept&#45;&gt;mem_sock -->
<g id="edge11" class="edge">
<title>mem_accept&#45;&gt;mem_sock</title>
<path fill="none" stroke="#555555" d="M1205.08,-272.17C1219.33,-252.88 1239.32,-225.83 1257.01,-201.88"/>
<polygon fill="#555555" stroke="#555555" points="1260.04,-203.67 1263.16,-193.55 1254.41,-199.51 1260.04,-203.67"/>
<text text-anchor="middle" x="1245" y="-241" font-family="Helvetica,sans-Serif" font-size="10.00">serve</text>
</g>
<!-- supervisor&#45;&gt;hive_bus -->
<g id="edge19" class="edge">
<title>supervisor&#45;&gt;hive_bus</title>
<path fill="none" stroke="#555555" d="M495.32,-272.48C508.33,-267.3 521.28,-261.32 533,-254.5 562.83,-237.15 592.08,-211.92 614.46,-190.35"/>
<polygon fill="#555555" stroke="#555555" points="617.08,-192.68 621.77,-183.19 612.18,-187.68 617.08,-192.68"/>
<text text-anchor="middle" x="593.5" y="-241" font-family="Helvetica,sans-Serif" font-size="10.00">publish facts</text>
</g>
<!-- eng_child -->
<g id="node20" class="node">
<title>eng_child</title>
<path fill="#e7e7f6" stroke="#33628f" d="M493.5,-173.25C493.5,-173.25 210.5,-173.25 210.5,-173.25 204.5,-173.25 198.5,-167.25 198.5,-161.25 198.5,-161.25 198.5,-132.25 198.5,-132.25 198.5,-126.25 204.5,-120.25 210.5,-120.25 210.5,-120.25 493.5,-120.25 493.5,-120.25 499.5,-120.25 505.5,-126.25 505.5,-132.25 505.5,-132.25 505.5,-161.25 505.5,-161.25 505.5,-167.25 499.5,-173.25 493.5,-173.25"/>
<text text-anchor="middle" x="352" y="-158.05" font-family="Helvetica,sans-Serif" font-size="14.00">engineer subprocess</text>
<text text-anchor="middle" x="352" y="-143.05" font-family="Helvetica,sans-Serif" font-size="14.00">`engineer run single&#45;process` (opt. tmux)</text>
<text text-anchor="middle" x="352" y="-128.05" font-family="Helvetica,sans-Serif" font-size="14.00">agent_supervisor/lifecycle/spawn.rs:27</text>
</g>
<!-- supervisor&#45;&gt;eng_child -->
<g id="edge15" class="edge">
<title>supervisor&#45;&gt;eng_child</title>
<path fill="none" stroke="#555555" d="M379.84,-272.26C375.24,-266.81 371.01,-260.79 368,-254.5 357.44,-232.42 353.49,-205.08 352.15,-183.59"/>
<polygon fill="#555555" stroke="#555555" points="355.65,-183.39 351.69,-173.57 348.66,-183.72 355.65,-183.39"/>
<text text-anchor="middle" x="450.5" y="-246.5" font-family="Helvetica,sans-Serif" font-size="10.00">spawn child process</text>
<text text-anchor="middle" x="450.5" y="-235.5" font-family="Helvetica,sans-Serif" font-size="10.00">(hive&#45;fact heartbeats, no raw IPC)</text>
</g>
<!-- overseer -->
<g id="node12" class="node">
<title>overseer</title>
<path fill="#f0f0f0" stroke="#33628f" stroke-dasharray="5,2" d="M736,-325.5C736,-325.5 574,-325.5 574,-325.5 568,-325.5 562,-319.5 562,-313.5 562,-313.5 562,-284.5 562,-284.5 562,-278.5 568,-272.5 574,-272.5 574,-272.5 736,-272.5 736,-272.5 742,-272.5 748,-278.5 748,-284.5 748,-284.5 748,-313.5 748,-313.5 748,-319.5 742,-325.5 736,-325.5"/>
<text text-anchor="middle" x="655" y="-310.3" font-family="Helvetica,sans-Serif" font-size="14.00">overseer (planned)</text>
<text text-anchor="middle" x="655" y="-295.3" font-family="Helvetica,sans-Serif" font-size="14.00">design sketch, not wired</text>
<text text-anchor="middle" x="655" y="-280.3" font-family="Helvetica,sans-Serif" font-size="14.00">overseer/mod.rs:1&#45;18</text>
</g>
<!-- overseer&#45;&gt;hive_bus -->
<g id="edge22" class="edge">
<title>overseer&#45;&gt;hive_bus</title>
<path fill="none" stroke="#999999" stroke-dasharray="5,2" d="M655,-272.17C655,-250.64 655,-219.43 655,-193.66"/>
<polygon fill="#999999" stroke="#999999" points="658.5,-193.35 655,-183.35 651.5,-193.35 658.5,-193.35"/>
<text text-anchor="middle" x="675" y="-241" font-family="Helvetica,sans-Serif" font-size="10.00">planned</text>
</g>
<!-- rcm -->
<g id="node17" class="node">
<title>rcm</title>
<path fill="#e7e7f6" stroke="#33628f" d="M1388,-45.5C1388,-45.5 1206,-45.5 1206,-45.5 1200,-45.5 1194,-39.5 1194,-33.5 1194,-33.5 1194,-19.5 1194,-19.5 1194,-13.5 1200,-7.5 1206,-7.5 1206,-7.5 1388,-7.5 1388,-7.5 1394,-7.5 1400,-13.5 1400,-19.5 1400,-19.5 1400,-33.5 1400,-33.5 1400,-39.5 1394,-45.5 1388,-45.5"/>
<text text-anchor="middle" x="1297" y="-30.3" font-family="Helvetica,sans-Serif" font-size="14.00">RemoteCognitiveMemory</text>
<text text-anchor="middle" x="1297" y="-15.3" font-family="Helvetica,sans-Serif" font-size="14.00">cognitive&#45;memory backend</text>
</g>
<!-- mem_sock&#45;&gt;rcm -->
<g id="edge12" class="edge">
<title>mem_sock&#45;&gt;rcm</title>
<path fill="none" stroke="#555555" d="M1297,-99.69C1297,-84.9 1297,-68.96 1297,-55.83"/>
<polygon fill="#555555" stroke="#555555" points="1300.5,-55.54 1297,-45.54 1293.5,-55.54 1300.5,-55.54"/>
<text text-anchor="middle" x="1318" y="-74" font-family="Helvetica,sans-Serif" font-size="10.00">dispatch</text>
</g>
<!-- rt_ipc -->
<g id="node14" class="node">
<title>rt_ipc</title>
<path fill="#f3dcec" stroke="#33628f" d="M1767.5,-185.21C1767.5,-189.92 1699.15,-193.75 1615,-193.75 1530.85,-193.75 1462.5,-189.92 1462.5,-185.21 1462.5,-185.21 1462.5,-108.29 1462.5,-108.29 1462.5,-103.58 1530.85,-99.75 1615,-99.75 1699.15,-99.75 1767.5,-103.58 1767.5,-108.29 1767.5,-108.29 1767.5,-185.21 1767.5,-185.21"/>
<path fill="none" stroke="#33628f" d="M1767.5,-185.21C1767.5,-180.49 1699.15,-176.66 1615,-176.66 1530.85,-176.66 1462.5,-180.49 1462.5,-185.21"/>
<text text-anchor="middle" x="1615" y="-165.55" font-family="Helvetica,sans-Serif" font-size="14.00">Runtime IPC</text>
<text text-anchor="middle" x="1615" y="-150.55" font-family="Helvetica,sans-Serif" font-size="14.00">newline&#45;JSON IpcMessage over stdio/unix</text>
<text text-anchor="middle" x="1615" y="-135.55" font-family="Helvetica,sans-Serif" font-size="14.00">spawn_subprocess()</text>
<text text-anchor="middle" x="1615" y="-120.55" font-family="Helvetica,sans-Serif" font-size="14.00">runtime_ipc/mod.rs:20,177</text>
</g>
<!-- child_proc -->
<g id="node19" class="node">
<title>child_proc</title>
<path fill="#e7e7f6" stroke="#33628f" d="M1686.5,-45.5C1686.5,-45.5 1543.5,-45.5 1543.5,-45.5 1537.5,-45.5 1531.5,-39.5 1531.5,-33.5 1531.5,-33.5 1531.5,-19.5 1531.5,-19.5 1531.5,-13.5 1537.5,-7.5 1543.5,-7.5 1543.5,-7.5 1686.5,-7.5 1686.5,-7.5 1692.5,-7.5 1698.5,-13.5 1698.5,-19.5 1698.5,-19.5 1698.5,-33.5 1698.5,-33.5 1698.5,-39.5 1692.5,-45.5 1686.5,-45.5"/>
<text text-anchor="middle" x="1615" y="-30.3" font-family="Helvetica,sans-Serif" font-size="14.00">subprocess child</text>
<text text-anchor="middle" x="1615" y="-15.3" font-family="Helvetica,sans-Serif" font-size="14.00">(&#45;&#45;ipc&#45;socket &lt;path&gt;)</text>
</g>
<!-- rt_ipc&#45;&gt;child_proc -->
<g id="edge16" class="edge">
<title>rt_ipc&#45;&gt;child_proc</title>
<path fill="none" stroke="#555555" d="M1615,-99.69C1615,-84.9 1615,-68.96 1615,-55.83"/>
<polygon fill="#555555" stroke="#555555" points="1618.5,-55.54 1615,-45.54 1611.5,-55.54 1618.5,-55.54"/>
<text text-anchor="middle" x="1635" y="-74" font-family="Helvetica,sans-Serif" font-size="10.00">accept()</text>
</g>
<!-- rpc_srv -->
<g id="node21" class="node">
<title>rpc_srv</title>
<path fill="#e7e7f6" stroke="#33628f" d="M1089.5,-53C1089.5,-53 846.5,-53 846.5,-53 840.5,-53 834.5,-47 834.5,-41 834.5,-41 834.5,-12 834.5,-12 834.5,-6 840.5,0 846.5,0 846.5,0 1089.5,0 1089.5,0 1095.5,0 1101.5,-6 1101.5,-12 1101.5,-12 1101.5,-41 1101.5,-41 1101.5,-47 1095.5,-53 1089.5,-53"/>
<text text-anchor="middle" x="968" y="-37.8" font-family="Helvetica,sans-Serif" font-size="14.00">RPC servers</text>
<text text-anchor="middle" x="968" y="-22.8" font-family="Helvetica,sans-Serif" font-size="14.00">(knowledge / gym, native transport)</text>
<text text-anchor="middle" x="968" y="-7.8" font-family="Helvetica,sans-Serif" font-size="14.00">rpc_transport/native.rs:26</text>
</g>
<!-- rpc_ch&#45;&gt;rpc_srv -->
<g id="edge18" class="edge">
<title>rpc_ch&#45;&gt;rpc_srv</title>
<path fill="none" stroke="#555555" d="M968,-99.69C968,-87.58 968,-74.69 968,-63.21"/>
<polygon fill="#555555" stroke="#555555" points="971.5,-63.13 968,-53.13 964.5,-63.13 971.5,-63.13"/>
<text text-anchor="middle" x="1001.5" y="-74" font-family="Helvetica,sans-Serif" font-size="10.00">one JSON/line</text>
</g>
<!-- subscribers -->
<g id="node22" class="node">
<title>subscribers</title>
<path fill="#e7e7f6" stroke="#33628f" d="M763,-53C763,-53 547,-53 547,-53 541,-53 535,-47 535,-41 535,-41 535,-12 535,-12 535,-6 541,0 547,0 547,0 763,0 763,0 769,0 775,-6 775,-12 775,-12 775,-41 775,-41 775,-47 769,-53 763,-53"/>
<text text-anchor="middle" x="655" y="-37.8" font-family="Helvetica,sans-Serif" font-size="14.00">HiveEvent subscribers</text>
<text text-anchor="middle" x="655" y="-22.8" font-family="Helvetica,sans-Serif" font-size="14.00">subscribe()/publish()</text>
<text text-anchor="middle" x="655" y="-7.8" font-family="Helvetica,sans-Serif" font-size="14.00">hive_event_bus/mod.rs:275,284</text>
</g>
<!-- hive_bus&#45;&gt;subscribers -->
<g id="edge21" class="edge">
<title>hive_bus&#45;&gt;subscribers</title>
<path fill="none" stroke="#555555" d="M655,-110.27C655,-95.49 655,-78.35 655,-63.51"/>
<polygon fill="#555555" stroke="#555555" points="658.5,-63.18 655,-53.18 651.5,-63.18 658.5,-63.18"/>
<text text-anchor="middle" x="679.5" y="-74" font-family="Helvetica,sans-Serif" font-size="10.00">broadcast</text>
</g>
<!-- runtime -->
<g id="node18" class="node">
<title>runtime</title>
<path fill="#dbe9f8" stroke="#33628f" d="M1713.5,-325.5C1713.5,-325.5 1516.5,-325.5 1516.5,-325.5 1510.5,-325.5 1504.5,-319.5 1504.5,-313.5 1504.5,-313.5 1504.5,-284.5 1504.5,-284.5 1504.5,-278.5 1510.5,-272.5 1516.5,-272.5 1516.5,-272.5 1713.5,-272.5 1713.5,-272.5 1719.5,-272.5 1725.5,-278.5 1725.5,-284.5 1725.5,-284.5 1725.5,-313.5 1725.5,-313.5 1725.5,-319.5 1719.5,-325.5 1713.5,-325.5"/>
<text text-anchor="middle" x="1615" y="-310.3" font-family="Helvetica,sans-Serif" font-size="14.00">Runtime driver (MultiProcess)</text>
<text text-anchor="middle" x="1615" y="-295.3" font-family="Helvetica,sans-Serif" font-size="14.00">spawn_subordinate()</text>
<text text-anchor="middle" x="1615" y="-280.3" font-family="Helvetica,sans-Serif" font-size="14.00">runtime/mod.rs:201,213</text>
</g>
<!-- runtime&#45;&gt;rt_ipc -->
<g id="edge14" class="edge">
<title>runtime&#45;&gt;rt_ipc</title>
<path fill="none" stroke="#555555" d="M1615,-272.17C1615,-253.39 1615,-227.24 1615,-203.76"/>
<polygon fill="#555555" stroke="#555555" points="1618.5,-203.55 1615,-193.55 1611.5,-203.55 1618.5,-203.55"/>
<text text-anchor="middle" x="1661" y="-241" font-family="Helvetica,sans-Serif" font-size="10.00">spawn_subprocess</text>
</g>
</g>
</svg>
