<?xml version="1.0" encoding="UTF-8" standalone="no"?>
<!DOCTYPE svg PUBLIC "-//W3C//DTD SVG 1.1//EN"
 "http://www.w3.org/Graphics/SVG/1.1/DTD/svg11.dtd">
<!-- Generated by graphviz version 2.42.4 (0)
 -->
<!-- Title: AgenticRecipes Pages: 1 -->
<svg width="1216pt" height="849pt"
 viewBox="0.00 0.00 1215.50 849.00" xmlns="http://www.w3.org/2000/svg" xmlns:xlink="http://www.w3.org/1999/xlink">
<g id="graph0" class="graph" transform="scale(1 1) rotate(0) translate(4 845)">
<title>AgenticRecipes</title>
<polygon fill="white" stroke="transparent" points="-4,4 -4,-845 1211.5,-845 1211.5,4 -4,4"/>
<!-- callers -->
<g id="node1" class="node">
<title>callers</title>
<path fill="#f8fbff" stroke="black" d="M1030,-841C1030,-841 598,-841 598,-841 592,-841 586,-835 586,-829 586,-829 586,-800 586,-800 586,-794 592,-788 598,-788 598,-788 1030,-788 1030,-788 1036,-788 1042,-794 1042,-800 1042,-800 1042,-829 1042,-829 1042,-835 1036,-841 1030,-841"/>
<text text-anchor="middle" x="814" y="-825.8" font-family="Arial" font-size="14.00">Callers: OODA orient/decide/lifecycle (RecipeBrain),</text>
<text text-anchor="middle" x="814" y="-810.8" font-family="Arial" font-size="14.00">stewardship merge judge, journal, disk&#45;health,</text>
<text text-anchor="middle" x="814" y="-795.8" font-family="Arial" font-size="14.00">typed&#45;OODA actor, overseer merge&#45;queue/ecosystem/smart&#45;orchestrator</text>
</g>
<!-- resolve -->
<g id="node2" class="node">
<title>resolve</title>
<path fill="#f8fbff" stroke="black" d="M1020,-751C1020,-751 608,-751 608,-751 602,-751 596,-745 596,-739 596,-739 596,-710 596,-710 596,-704 602,-698 608,-698 608,-698 1020,-698 1020,-698 1026,-698 1032,-704 1032,-710 1032,-710 1032,-739 1032,-739 1032,-745 1026,-751 1020,-751"/>
<text text-anchor="middle" x="814" y="-735.8" font-family="Arial" font-size="14.00">resolve_recipe_path (precedence)</text>
<text text-anchor="middle" x="814" y="-720.8" font-family="Arial" font-size="14.00">1) ~/.simard/prompt_assets/simard/recipes/&lt;name&gt;.yaml (hot&#45;reload)</text>
<text text-anchor="middle" x="814" y="-705.8" font-family="Arial" font-size="14.00">2) &lt;repo&gt;/prompt_assets/simard/recipes/&lt;name&gt;.yaml (in&#45;tree)</text>
</g>
<!-- callers&#45;&gt;resolve -->
<g id="edge1" class="edge">
<title>callers&#45;&gt;resolve</title>
<path fill="none" stroke="black" d="M814,-787.57C814,-779.34 814,-770.08 814,-761.28"/>
<polygon fill="black" stroke="black" points="817.5,-761.24 814,-751.24 810.5,-761.24 817.5,-761.24"/>
</g>
<!-- precond -->
<g id="node3" class="node">
<title>precond</title>
<path fill="#f8fbff" stroke="black" d="M782,-639.5C782,-639.5 456,-639.5 456,-639.5 450,-639.5 444,-633.5 444,-627.5 444,-627.5 444,-613.5 444,-613.5 444,-607.5 450,-601.5 456,-601.5 456,-601.5 782,-601.5 782,-601.5 788,-601.5 794,-607.5 794,-613.5 794,-613.5 794,-627.5 794,-627.5 794,-633.5 788,-639.5 782,-639.5"/>
<text text-anchor="middle" x="619" y="-624.3" font-family="Arial" font-size="14.00">RecipeBrain::new preconditions</text>
<text text-anchor="middle" x="619" y="-609.3" font-family="Arial" font-size="14.00">recipe exists + recipe&#45;runner&#45;rs &#45;&#45;version + agent binary</text>
</g>
<!-- resolve&#45;&gt;precond -->
<g id="edge2" class="edge">
<title>resolve&#45;&gt;precond</title>
<path fill="none" stroke="black" d="M765.04,-697.89C733.55,-681.42 692.99,-660.2 662.61,-644.31"/>
<polygon fill="black" stroke="black" points="664.01,-641.1 653.53,-639.56 660.77,-647.3 664.01,-641.1"/>
</g>
<!-- inv -->
<g id="node12" class="node">
<title>inv</title>
<path fill="#fff6df" stroke="black" d="M1195.5,-647C1195.5,-647 824.5,-647 824.5,-647 818.5,-647 812.5,-641 812.5,-635 812.5,-635 812.5,-606 812.5,-606 812.5,-600 818.5,-594 824.5,-594 824.5,-594 1195.5,-594 1195.5,-594 1201.5,-594 1207.5,-600 1207.5,-606 1207.5,-606 1207.5,-635 1207.5,-635 1207.5,-641 1201.5,-647 1195.5,-647"/>
<text text-anchor="middle" x="1010" y="-631.8" font-family="Arial" font-size="14.00">prompt_assets/simard/recipes/*.yaml inventory</text>
<text text-anchor="middle" x="1010" y="-616.8" font-family="Arial" font-size="14.00">(ooda&#45;*, goal&#45;*, merge&#45;readiness&#45;judge, observe&#45;merge&#45;queue,</text>
<text text-anchor="middle" x="1010" y="-601.8" font-family="Arial" font-size="14.00">ecosystem&#45;observe, journal&#45;*, disk&#45;*, distill&#45;episodes, ...)</text>
</g>
<!-- resolve&#45;&gt;inv -->
<g id="edge13" class="edge">
<title>resolve&#45;&gt;inv</title>
<path fill="none" stroke="black" stroke-dasharray="5,2" d="M863.21,-697.89C890.12,-683.89 923.62,-666.45 951.82,-651.78"/>
<polygon fill="black" stroke="black" points="953.52,-654.84 960.77,-647.12 950.29,-648.63 953.52,-654.84"/>
<text text-anchor="middle" x="941" y="-668.8" font-family="Arial" font-size="14.00">reads</text>
</g>
<!-- fresh -->
<g id="node4" class="node">
<title>fresh</title>
<path fill="#f8fbff" stroke="black" d="M378,-535.5C378,-535.5 12,-535.5 12,-535.5 6,-535.5 0,-529.5 0,-523.5 0,-523.5 0,-509.5 0,-509.5 0,-503.5 6,-497.5 12,-497.5 12,-497.5 378,-497.5 378,-497.5 384,-497.5 390,-503.5 390,-509.5 390,-509.5 390,-523.5 390,-523.5 390,-529.5 384,-535.5 378,-535.5"/>
<text text-anchor="middle" x="195" y="-520.3" font-family="Arial" font-size="14.00">(engineer&#45;spawn path only) amplihack_freshness_gate</text>
<text text-anchor="middle" x="195" y="-505.3" font-family="Arial" font-size="14.00">&#39;amplihack update&#39; pre&#45;spawn &#160;src/amplihack_freshness_gate/</text>
</g>
<!-- precond&#45;&gt;fresh -->
<g id="edge3" class="edge">
<title>precond&#45;&gt;fresh</title>
<path fill="none" stroke="black" stroke-dasharray="5,2" d="M544.17,-601.5C470.34,-583.74 357.61,-556.62 280.34,-538.03"/>
<polygon fill="black" stroke="black" points="280.69,-534.51 270.15,-535.58 279.05,-541.32 280.69,-534.51"/>
<text text-anchor="middle" x="486" y="-564.8" font-family="Arial" font-size="14.00">if engineer spawn</text>
</g>
<!-- ctx -->
<g id="node5" class="node">
<title>ctx</title>
<path fill="#f8fbff" stroke="black" d="M817.5,-543C817.5,-543 420.5,-543 420.5,-543 414.5,-543 408.5,-537 408.5,-531 408.5,-531 408.5,-502 408.5,-502 408.5,-496 414.5,-490 420.5,-490 420.5,-490 817.5,-490 817.5,-490 823.5,-490 829.5,-496 829.5,-502 829.5,-502 829.5,-531 829.5,-531 829.5,-537 823.5,-543 817.5,-543"/>
<text text-anchor="middle" x="619" y="-527.8" font-family="Arial" font-size="14.00">ContextFile (only when a var is large; else inline argv)</text>
<text text-anchor="middle" x="619" y="-512.8" font-family="Arial" font-size="14.00">large vars &#45;&gt; 0700 temp file, &#45;c key_path=... (avoids execve E2BIG)</text>
<text text-anchor="middle" x="619" y="-497.8" font-family="Arial" font-size="14.00">src/recipe_context_file.rs</text>
</g>
<!-- precond&#45;&gt;ctx -->
<g id="edge4" class="edge">
<title>precond&#45;&gt;ctx</title>
<path fill="none" stroke="black" stroke-dasharray="5,2" d="M619,-601.26C619,-588.01 619,-569.63 619,-553.47"/>
<polygon fill="black" stroke="black" points="622.5,-553.24 619,-543.24 615.5,-553.24 622.5,-553.24"/>
<text text-anchor="middle" x="651" y="-564.8" font-family="Arial" font-size="14.00">if large var</text>
</g>
<!-- spawn -->
<g id="node6" class="node">
<title>spawn</title>
<path fill="#f8fbff" stroke="black" d="M797,-453C797,-453 441,-453 441,-453 435,-453 429,-447 429,-441 429,-441 429,-412 429,-412 429,-406 435,-400 441,-400 441,-400 797,-400 797,-400 803,-400 809,-406 809,-412 809,-412 809,-441 809,-441 809,-447 803,-453 797,-453"/>
<text text-anchor="middle" x="619" y="-437.8" font-family="Arial" font-size="14.00">Command::new(recipe&#45;runner&#45;rs) recipe &#45;&#45;output&#45;format json</text>
<text text-anchor="middle" x="619" y="-422.8" font-family="Arial" font-size="14.00">env AMPLIHACK_AGENT_BINARY &#45;c key=value ...</text>
<text text-anchor="middle" x="619" y="-407.8" font-family="Arial" font-size="14.00">(overseer: amplihack recipe run smart&#45;orchestrator)</text>
</g>
<!-- precond&#45;&gt;spawn -->
<g id="edge5" class="edge">
<title>precond&#45;&gt;spawn</title>
<path fill="none" stroke="black" d="M751.08,-601.43C784.83,-590.17 817.37,-572.06 838,-543 851.64,-523.79 852.19,-508.8 838,-490 827.79,-476.46 799.83,-464.98 767.16,-455.69"/>
<polygon fill="black" stroke="black" points="767.93,-452.28 757.36,-453.01 766.08,-459.03 767.93,-452.28"/>
</g>
<!-- fresh&#45;&gt;spawn -->
<g id="edge6" class="edge">
<title>fresh&#45;&gt;spawn</title>
<path fill="none" stroke="black" stroke-dasharray="5,2" d="M281.83,-497.48C340.59,-485.28 419.35,-468.94 485.96,-455.11"/>
<polygon fill="black" stroke="black" points="487.04,-458.46 496.12,-453 485.62,-451.61 487.04,-458.46"/>
</g>
<!-- ctx&#45;&gt;spawn -->
<g id="edge7" class="edge">
<title>ctx&#45;&gt;spawn</title>
<path fill="none" stroke="black" stroke-dasharray="5,2" d="M619,-489.57C619,-481.34 619,-472.08 619,-463.28"/>
<polygon fill="black" stroke="black" points="622.5,-463.24 619,-453.24 615.5,-463.24 622.5,-463.24"/>
</g>
<!-- agent -->
<g id="node7" class="node">
<title>agent</title>
<path fill="#f8fbff" stroke="black" d="M580,-348C580,-348 298,-348 298,-348 292,-348 286,-342 286,-336 286,-336 286,-324 286,-324 286,-318 292,-312 298,-312 298,-312 580,-312 580,-312 586,-312 592,-318 592,-324 592,-324 592,-336 592,-336 592,-342 586,-348 580,-348"/>
<text text-anchor="middle" x="439" y="-326.3" font-family="Arial" font-size="14.00">agent binary (Copilot / Claude) runs recipe steps</text>
</g>
<!-- spawn&#45;&gt;agent -->
<g id="edge8" class="edge">
<title>spawn&#45;&gt;agent</title>
<path fill="none" stroke="black" d="M570.29,-399.93C542.26,-385.21 507.4,-366.91 480.65,-352.86"/>
<polygon fill="black" stroke="black" points="482.03,-349.64 471.55,-348.09 478.77,-355.83 482.03,-349.64"/>
</g>
<!-- ext -->
<g id="node13" class="node">
<title>ext</title>
<path fill="#fff6df" stroke="black" d="M978,-349C978,-349 622,-349 622,-349 616,-349 610,-343 610,-337 610,-337 610,-323 610,-323 610,-317 616,-311 622,-311 622,-311 978,-311 978,-311 984,-311 990,-317 990,-323 990,-323 990,-337 990,-337 990,-343 984,-349 978,-349"/>
<text text-anchor="middle" x="800" y="-333.8" font-family="Arial" font-size="14.00">smart&#45;orchestrator / default&#45;workflow / investigation&#45;workflow</text>
<text text-anchor="middle" x="800" y="-318.8" font-family="Arial" font-size="14.00">in amplifier&#45;bundle (downstream), NOT this repo</text>
</g>
<!-- spawn&#45;&gt;ext -->
<g id="edge14" class="edge">
<title>spawn&#45;&gt;ext</title>
<path fill="none" stroke="black" stroke-dasharray="5,2" d="M667.98,-399.93C695.52,-385.55 729.6,-367.76 756.23,-353.85"/>
<polygon fill="black" stroke="black" points="758.08,-356.84 765.32,-349.11 754.84,-350.63 758.08,-356.84"/>
<text text-anchor="middle" x="756.5" y="-370.8" font-family="Arial" font-size="14.00">external</text>
</g>
<!-- stdout -->
<g id="node8" class="node">
<title>stdout</title>
<path fill="#f8fbff" stroke="black" d="M608,-274C608,-274 270,-274 270,-274 264,-274 258,-268 258,-262 258,-262 258,-250 258,-250 258,-244 264,-238 270,-238 270,-238 608,-238 608,-238 614,-238 620,-244 620,-250 620,-250 620,-262 620,-262 620,-268 614,-274 608,-274"/>
<text text-anchor="middle" x="439" y="-252.3" font-family="Arial" font-size="14.00">stdout envelope {success, step_results:[{step_id, output}]}</text>
</g>
<!-- agent&#45;&gt;stdout -->
<g id="edge9" class="edge">
<title>agent&#45;&gt;stdout</title>
<path fill="none" stroke="black" d="M439,-311.94C439,-303.81 439,-293.88 439,-284.7"/>
<polygon fill="black" stroke="black" points="442.5,-284.44 439,-274.44 435.5,-284.44 442.5,-284.44"/>
</g>
<!-- extract -->
<g id="node9" class="node">
<title>extract</title>
<path fill="#f8fbff" stroke="black" d="M571.5,-201C571.5,-201 306.5,-201 306.5,-201 300.5,-201 294.5,-195 294.5,-189 294.5,-189 294.5,-160 294.5,-160 294.5,-154 300.5,-148 306.5,-148 306.5,-148 571.5,-148 571.5,-148 577.5,-148 583.5,-154 583.5,-160 583.5,-160 583.5,-189 583.5,-189 583.5,-195 577.5,-201 571.5,-201"/>
<text text-anchor="middle" x="439" y="-185.8" font-family="Arial" font-size="14.00">recipe_output: strip_ansi + strip_recipe_noise</text>
<text text-anchor="middle" x="439" y="-170.8" font-family="Arial" font-size="14.00">extract_json_payload / extract_verdict</text>
<text text-anchor="middle" x="439" y="-155.8" font-family="Arial" font-size="14.00">src/recipe_output/extract.rs</text>
</g>
<!-- stdout&#45;&gt;extract -->
<g id="edge10" class="edge">
<title>stdout&#45;&gt;extract</title>
<path fill="none" stroke="black" d="M439,-237.75C439,-229.99 439,-220.51 439,-211.32"/>
<polygon fill="black" stroke="black" points="442.5,-211.18 439,-201.18 435.5,-211.18 442.5,-211.18"/>
</g>
<!-- outcome -->
<g id="node10" class="node">
<title>outcome</title>
<path fill="#f8fbff" stroke="black" d="M609,-111C609,-111 269,-111 269,-111 263,-111 257,-105 257,-99 257,-99 257,-85 257,-85 257,-79 263,-73 269,-73 269,-73 609,-73 609,-73 615,-73 621,-79 621,-85 621,-85 621,-99 621,-99 621,-105 615,-111 609,-111"/>
<text text-anchor="middle" x="439" y="-95.8" font-family="Arial" font-size="14.00">typed decision (OrientJudgment/DecideJudgment/Verdict)</text>
<text text-anchor="middle" x="439" y="-80.8" font-family="Arial" font-size="14.00">record_parse_outcome &#45;&gt; metrics.jsonl</text>
</g>
<!-- extract&#45;&gt;outcome -->
<g id="edge11" class="edge">
<title>extract&#45;&gt;outcome</title>
<path fill="none" stroke="black" d="M439,-147.59C439,-139.31 439,-130.11 439,-121.65"/>
<polygon fill="black" stroke="black" points="442.5,-121.47 439,-111.47 435.5,-121.47 442.5,-121.47"/>
</g>
<!-- back -->
<g id="node11" class="node">
<title>back</title>
<path fill="#f8fbff" stroke="black" d="M636,-36C636,-36 242,-36 242,-36 236,-36 230,-30 230,-24 230,-24 230,-12 230,-12 230,-6 236,0 242,0 242,0 636,0 636,0 642,0 648,-6 648,-12 648,-12 648,-24 648,-24 648,-30 642,-36 636,-36"/>
<text text-anchor="middle" x="439" y="-14.3" font-family="Arial" font-size="14.00">returned to caller (OODA phase / merge gate / typed&#45;OODA effect)</text>
</g>
<!-- outcome&#45;&gt;back -->
<g id="edge12" class="edge">
<title>outcome&#45;&gt;back</title>
<path fill="none" stroke="black" d="M439,-72.83C439,-64.89 439,-55.41 439,-46.63"/>
<polygon fill="black" stroke="black" points="442.5,-46.42 439,-36.42 435.5,-46.42 442.5,-46.42"/>
</g>
</g>
</svg>
